<svg xmlns="http://www.w3.org/2000/svg" viewBox="0 0 80 80"><circle fill="#D8B33D" cx="40" cy="40" r="40"/><path fill="#CD4E49" d="M54.53 38.71c1.52.24 3.05.47 4.6.69 1.55.22 2.94.33 4.17.33.92 0 1.66-.15 2.23-.46.56-.31 1.03-.61 1.41-.92.38-.31.75-.46 1.13-.46.48 0 .85.21 1.13.64.27.43.47.95.59 1.56.12.61.18 1.21.18 1.79 0 1.88-.37 3.35-1.1 4.42-.73 1.07-2 1.61-3.81 1.61-1.16 0-2.36-.23-3.61-.69-1.24-.46-2.49-1-3.73-1.61-1.27-.61-2.48-1.15-3.65-1.61-1.18-.46-2.28-.69-3.3-.69-1.19 0-2.05.25-2.56.74-.51.49-.77 1.15-.77 1.97 0 .89.32 1.69.97 2.4.65.72 1.48 1.33 2.48 1.84 1.01.51 2.07.95 3.2 1.3 1.12.36 2.18.62 3.17.79.99.17 1.77.26 2.35.26 1.43 0 2.6-.14 3.5-.41.9-.27 1.64-.55 2.2-.82.56-.27 1.03-.41 1.41-.41.37 0 .68.14.92.41.24.27.36.79.36 1.53 0 1.67-.31 3.09-.92 4.27-.61 1.18-1.77 1.76-3.48 1.76a4.9 4.9 0 01-2.12-.49c-.7-.32-1.41-.73-2.12-1.23-.72-.49-1.42-.99-2.1-1.48-.68-.49-1.36-.9-2.02-1.23-.67-.32-1.3-.49-1.92-.49-.65 0-1.14.2-1.48.61-.34.41-.51.99-.51 1.74 0 1.4.38 2.63 1.15 3.68.77 1.06 1.7 2 2.81 2.81 1.11.82 2.23 1.58 3.35 2.28 1.13.7 2.07 1.38 2.84 2.05.77.67 1.15 1.39 1.15 2.17 0 .48-.17.88-.51 1.2-.34.33-.9.49-1.69.49-1.19 0-2.54-.05-4.04-.15-1.5-.1-2.98-.14-4.45-.1-1.3 0-2.38.03-3.25.08-.87.05-1.68.08-2.43.08-.85 0-1.28-.34-1.28-1.02 0-.17.07-.39.2-.67.14-.27.32-.53.56-.77.85-.75 1.61-1.74 2.28-2.97.66-1.23 1-2.42 1-3.58 0-1.74-.23-3.44-.69-5.12-.46-1.67-1.01-3.29-1.64-4.86-.63-1.57-1.18-3.05-1.64-4.45-.46-1.4-.69-2.66-.69-3.79 0-1.81.55-3.16 1.64-4.07 1.09-.9 2.61-1.36 4.55-1.36 1.14.05 2.46.17 3.98.41z"/><path fill="#5F8E5D" d="M13.81 15.06c.84.1 1.94.15 3.3.15 1.19 0 2.32-.04 3.38-.13 1.06-.08 2.03-.13 2.92-.13.48 0 .82.15 1.02.43.2.29.31.62.31 1 0 .44-.25.89-.74 1.33-.49.44-1.1.95-1.82 1.51s-1.44 1.25-2.17 2.05c-.73.8-1.35 1.78-1.84 2.94s-.74 2.58-.74 4.25c0 1.3.14 2.51.43 3.63.29 1.13.76 2.03 1.41 2.71.65.68 1.53 1.02 2.66 1.02 1.16 0 2.06-.27 2.71-.82.65-.55 1.11-1.23 1.38-2.05.27-.82.41-1.64.41-2.46 0-1.5-.13-2.68-.38-3.53-.26-.85-.52-1.55-.79-2.1s-.41-1.09-.41-1.64c0-.65.38-1.23 1.13-1.74.75-.51 1.93-.77 3.53-.77 1.57 0 2.7.2 3.4.61.7.41 1.05 1.02 1.05 1.84 0 .44-.06.9-.18 1.38-.12.48-.24 1.04-.36 1.69-.12.65-.18 1.52-.18 2.61 0 2.12.42 3.73 1.25 4.86.84 1.13 2.34 1.69 4.53 1.69 1.06 0 2-.26 2.81-.79.82-.53 1.46-1.26 1.92-2.2.46-.94.69-2.04.69-3.3 0-1.26-.27-2.4-.82-3.4a9.72 9.72 0 00-2.12-2.66c-.87-.77-1.78-1.46-2.74-2.07-.96-.61-1.87-1.18-2.74-1.69-.87-.51-1.58-1-2.12-1.46-.55-.46-.82-.93-.82-1.41 0-.44.13-.81.38-1.1.26-.29.71-.43 1.36-.43.38 0 .99.05 1.84.15.85.1 1.7.15 2.56.15.65 0 1.44-.04 2.38-.13.94-.08 1.83-.13 2.69-.13 1.57 0 2.81.58 3.73 1.74.92 1.16 1.38 2.68 1.38 4.55 0 1.09-.16 2.25-.49 3.48-.33 1.23-.73 2.53-1.23 3.91-.49 1.38-1.01 2.84-1.56 4.37-.55 1.53-1.07 3.19-1.56 4.96s-.9 3.65-1.2 5.63c-.17 1.19-.43 2.18-.79 2.97-.36.79-.91 1.18-1.66 1.18-1.47 0-2.69-.35-3.66-1.05-.97-.7-1.76-1.6-2.38-2.71-.61-1.11-1.13-2.29-1.53-3.56-.41-1.26-.78-2.45-1.1-3.56-.32-1.11-.66-2.01-1.02-2.71-.36-.7-.81-1.05-1.36-1.05-.48 0-.98.35-1.51 1.05-.53.7-1.08 1.6-1.66 2.71-.58 1.11-1.21 2.29-1.89 3.56-.68 1.26-1.42 2.45-2.2 3.56-.8 1.15-1.66 2.05-2.6 2.75-.94.7-1.95 1.05-3.04 1.05-.92 0-1.38-.58-1.38-1.74 0-.78.04-1.76.13-2.92.08-1.16.13-2.54.13-4.14 0-3.04-.29-5.79-.87-8.26-.58-2.47-1.25-4.65-2.02-6.52-.77-1.88-1.44-3.44-2.02-4.68-.58-1.24-.87-2.16-.87-2.74 0-1.23.6-1.84 1.79-1.84.47 0 1.12.05 1.96.15z"/></svg>