<svg viewBox="0 0 800 800" xmlns="http://www.w3.org/2000/svg"><defs/><path d="M472.9 28.4c1.3.5 3 1.1 5.2 1.7 1.8.5 3.6.8 5.3 1s3.2.5 4.6.9c.6.2 1 .4 1.1.8s.2.9 0 1.3c-.1.5-.7 1-1.7 1.5s-2.2 1-3.6 1.6-2.9 1.5-4.5 2.5-3 2.4-4.3 4.1-2.3 3.9-3 6.6c-.5 2-.8 4-.7 5.9s.5 3.5 1.4 4.9 2.2 2.3 4 2.8 3.3.4 4.5-.2 2.1-1.5 2.8-2.7 1.2-2.4 1.6-3.7c.7-2.7 1-4.9 1-6.6-.1-1.7-.2-3.2-.4-4.4s-.2-2.3.1-3.2c.3-1 1-1.6 2.2-1.8s3-.1 5.3.5c2.2.6 3.8 1.3 4.6 2 .9.7 1.2 1.6.9 2.6-.2.8-.5 1.7-.9 2.6s-.9 2-1.4 3.3-1 2.9-1.6 4.9c-.9 3.5-1 6.4-.2 8.6.8 2.3 2.9 3.8 6.3 4.7 1.6.4 3.2.3 4.7-.3 1.5-.7 2.8-1.8 4-3.3s2-3.3 2.6-5.4c.5-2 .5-3.9.1-5.7-.5-1.8-1.3-3.5-2.4-5-1.1-1.6-2.3-3-3.7-4.4s-2.6-2.7-3.8-3.8c-1.2-1.2-2.2-2.2-2.9-3.1s-1-1.8-.8-2.5c.1-.5.4-.9.8-1.2s1-.3 1.8-.1c.6.2 1.4.5 2.6 1 1.1.5 2.3 1 3.5 1.3 1.1.3 2.3.5 3.9.6 1.5.1 2.9.3 4.3.7 2.4.6 4.1 2.1 5.1 4.3s1 4.8.2 7.9c-.5 2-1.3 3.9-2.3 5.8-1 1.8-2.1 3.7-3.4 5.6s-2.6 3.9-4.1 6c-1.4 2.1-2.9 4.5-4.3 7.1s-2.8 5.6-4.1 8.9c-.7 1.7-1.4 3-2.2 3.9s-1.6 1.2-2.6.9c-2.1-.6-3.8-1.6-4.9-3.2-1.1-1.5-1.9-3.4-2.4-5.5-.4-2.1-.7-4.3-.8-6.6s-.1-4.4-.2-6.4c0-2-.1-3.6-.3-4.9s-.6-2-1.4-2.2c-.6-.2-1.5.2-2.5 1.2s-2.2 2.3-3.5 3.9c-1.3 1.7-2.7 3.4-4.1 5.3-1.5 1.9-3 3.6-4.5 5.2-1.6 1.6-3.1 2.8-4.7 3.6s-3.1 1-4.7.6c-1.3-.4-1.8-1.4-1.3-3.2.3-1.2.8-2.7 1.4-4.5s1.2-3.9 1.9-6.4c1.3-4.8 2-9.4 2-13.6.1-4.2-.1-8-.5-11.3s-.9-6.1-1.3-8.4-.5-3.8-.3-4.7c.4-1.4 1.3-1.9 2.8-1.5 1.3.2 2.4.6 3.7 1.2zm72 22.5c2.3 1.2 5.3 2.7 9 4.3 3.4 1.5 6.5 2.8 9.1 3.7 2.7.9 4.5 1.6 5.4 2 .7.3 1.1.8 1.3 1.4s.1 1.2-.2 1.9c-.4.9-1.2 1.9-2.4 3.1s-2.6 2.8-4.2 4.8-3.1 4.6-4.5 7.8c-1 2.4-1.9 5-2.6 7.9s-1.3 5.7-1.8 8.5-.9 5.3-1.3 7.5-.8 3.8-1.3 4.8c-.4.8-.8 1.3-1.3 1.4s-1 .1-1.5-.1c-.6-.2-1.3-.7-2.1-1.3-.9-.6-1.7-1.1-2.4-1.4-1-.4-2.2-.8-3.5-1.2-1.3-.3-2.2-.6-2.7-.8s-.9-.6-1.1-1c-.2-.5-.2-.9 0-1.4.3-.8 1.1-1.5 2.4-2.1 1.3-.7 2.8-1.4 4.5-2.3s3.3-2 4.9-3.3 2.8-3 3.8-5.1c.5-1.2.7-2.4.4-3.5-.2-1.1-1.1-2-2.6-2.7-1.6-.7-3.1-1.1-4.6-1.4-1.5-.2-2.9-.4-4.3-.5s-2.7-.5-4-1c-1.5-.6-2.3-1.6-2.5-2.9s0-2.5.5-3.8c.6-1.3 1.4-2.3 2.4-2.9s2-.7 3-.3c.8.3 1.4.9 2.1 1.7.6.8 1.4 1.6 2.2 2.5.9.9 2 1.7 3.5 2.3 2.5 1.1 4.6 1.3 6.4.5s3.1-2.2 4-4.2c.9-2.1.9-4.2 0-6.3s-2.8-3.7-5.6-5c-2.3-1-4.7-1.4-7.1-1-2.4.3-4.8 1.2-7 2.6s-4.3 3.1-6.1 5.2-3.3 4.4-4.4 6.9c-1.6 3.5-1.9 6.6-.9 9.1.9 2.6 3 4.7 6.1 6.4 1.5.8 2.4 1.6 2.7 2.4s.2 1.7-.2 2.8c-1.1 2.4-2.7 3.6-5 3.8s-5.4-.6-9.3-2.4c-2.5-1.1-4.3-2.2-5.5-3.1-1.1-1-1.8-1.9-2-2.8s-.1-1.7.2-2.4 1-1.6 2-2.8c1-1.1 2.2-2.4 3.5-3.9s2.6-3.1 3.9-4.9 2.4-3.7 3.3-5.8c1.5-3.4 2.7-6.3 3.7-8.8s1.8-4.6 2.4-6.4 1.2-3.3 1.6-4.6.9-2.4 1.3-3.3c.2-.6.7-1 1.2-1.2.6-.3 1.2-.2 2 .1 1.1.4 2.9 1.2 5.2 2.5zm38.4 17.9c.7 0 1.6.4 2.7 1.1 3 1.9 5.2 3.6 6.4 5.2s1.5 3 .7 4.2c-.6.9-1.4 1.8-2.5 2.5s-2.3 1.5-3.5 2.2c-1.3.7-2.5 1.5-3.7 2.4s-2.2 1.9-2.9 3.1c-.7 1.1-1.1 2.3-1.1 3.7 0 1.3.8 2.5 2.4 3.5 1.8 1.1 3.7 1.6 5.7 1.4s3.9-.9 5.7-2 3.2-2.5 4.2-4.1c.7-1.1 1.2-2.3 1.6-3.6s.7-2.6 1-3.7c.3-1.2.6-2.1 1-2.6s.7-.9 1.2-1.1c.4-.1 1.1 0 1.9.6.8.5 1.8 1.2 2.8 1.9s2 1.4 2.9 2.1 1.6 1.1 2.1 1.4c.7.4 1.7 1 3 1.7s2.3 1.3 3.2 1.8c.6.4.9.8 1 1.1 0 .4 0 .7-.2 1.1-.9 1.4-2.2 2.5-3.8 3.2s-3.4 1.2-5.4 1.4-4 .4-6.1.5-4.1.2-6.1.4c-1.9.2-3.7.6-5.2 1.1-1.5.6-2.7 1.5-3.5 2.8-1 1.6-1.4 3.6-1.3 5.9.2 2.3.9 4.5 2.2 6.7s3 3.9 5.2 5.3c.5.3 1 .6 1.6 1s1 .6 1.3.8c1.3.8 1.5 2 .6 3.5-1.1 1.7-2.4 3.3-3.9 4.7s-3.2 2.4-5.1 2.8c-1.9.5-3.9 0-6-1.3-3.2-2-4.8-4.4-4.9-7.1-.1-2.8.8-6 2.8-9.9 1.4-2.6 2.3-4.9 2.8-6.8s.4-3.7-.2-5.2-2-2.9-4-4.2c-1.7-1.1-3.4-1.6-5.1-1.5s-3.1 1-4.2 2.8c-.8 1.3-1.2 2.8-1.2 4.5s.3 3.4.8 5.2 1 3.5 1.5 5.2.9 3.2 1.1 4.6 0 2.5-.5 3.3c-.6 1-1.4 1.2-2.4.6-.3-.2-.8-.5-1.6-1.1s-1.7-1.2-2.8-2c-1-.7-2-1.4-2.9-2-1.4-.9-2.9-1.8-4.4-2.6s-2.7-1.5-3.6-2.1c-.5-.3-.8-.8-.9-1.3-.1-.6 0-1.1.4-1.7.4-.7 1.4-1.6 3.1-2.9s3.6-2.7 5.8-4.4 4.4-3.6 6.6-5.6c2.1-2 3.9-4.1 5.3-6.3 1.9-3 3.2-5.6 4.1-7.9s1.4-4.3 1.7-6.1c.3-1.7.5-3.2.6-4.3s.3-2 .6-2.5c.2-1.1.8-1.4 1.4-1.4zm52.5 35.9c1.9 1.8 4.4 4.1 7.5 6.6 2.9 2.4 5.5 4.4 7.8 6.1s3.8 2.8 4.6 3.4c.6.5.9 1.1.8 1.7 0 .6-.3 1.2-.7 1.8-.6.7-1.7 1.5-3.2 2.3s-3.3 2-5.4 3.5-4.2 3.5-6.5 6.2c-1.7 2-3.2 4.3-4.7 6.8-1.5 2.6-2.8 5.1-4.1 7.7-1.2 2.5-2.4 4.8-3.4 6.8s-1.8 3.4-2.6 4.3c-.6.7-1.1 1-1.7 1-.5 0-1-.2-1.4-.5-.5-.4-1-1-1.7-1.8s-1.3-1.5-2-2c-.8-.7-1.9-1.4-3-2.1-1.2-.7-1.9-1.2-2.3-1.5-.4-.4-.7-.8-.8-1.3s.1-1 .4-1.4c.5-.6 1.5-1.1 2.9-1.4s3.1-.6 4.9-1c1.9-.4 3.7-1 5.6-1.8s3.6-2.1 5-3.9c.8-1 1.3-2.1 1.4-3.3s-.5-2.3-1.8-3.3c-1.3-1.1-2.6-2-4-2.6s-2.7-1.2-4-1.7-2.5-1.2-3.5-2.1c-1.2-1-1.8-2.2-1.6-3.4.2-1.3.7-2.4 1.6-3.5s2-1.8 3.1-2.1 2.1-.1 3 .6c.6.5 1.1 1.3 1.5 2.2s.9 1.9 1.4 3c.6 1.1 1.5 2.2 2.7 3.2 2.1 1.8 4.1 2.5 6 2.3 1.9-.3 3.6-1.2 5-2.9 1.5-1.8 2.1-3.8 1.7-6-.3-2.3-1.7-4.4-4-6.4-1.9-1.6-4.1-2.6-6.6-3-2.4-.4-4.9-.2-7.4.5s-5 1.8-7.3 3.3-4.4 3.3-6.2 5.4c-2.5 2.9-3.6 5.8-3.4 8.5s1.6 5.3 4.1 7.8c1.2 1.2 1.9 2.2 2 3.1s-.3 1.7-1 2.6c-1.7 2-3.6 2.7-5.8 2.3-2.2-.5-5-2.1-8.3-4.8-2.1-1.8-3.6-3.3-4.4-4.5-.8-1.3-1.2-2.3-1.1-3.2s.4-1.6.9-2.3c.5-.6 1.4-1.3 2.7-2.1s2.8-1.7 4.4-2.8c1.7-1 3.4-2.2 5.1-3.6 1.8-1.4 3.4-2.9 4.8-4.6 2.4-2.8 4.4-5.3 6-7.4s3-3.9 4.1-5.5c1.1-1.5 2.1-2.9 2.8-4 .8-1.1 1.5-2.1 2.2-2.9.4-.5.9-.7 1.5-.8s1.2.1 1.9.7c1.2.7 2.7 2 4.5 3.8zm42.4 45.1c1 .4 2.1.8 3.3 1 1.1.3 2.2.6 3.2 1s1.8.9 2.5 1.7c1.3 1.6 1.7 3.2.9 4.8-.7 1.6-1.9 3.1-3.4 4.4-.6.5-.9 1-1 1.4s.1.9.6 1.5 1.3 1.1 2.4 1.3 2.3.4 3.8.6c1.4.1 2.9.3 4.5.6s3.1.7 4.5 1.4 2.7 1.6 3.8 2.9c1.5 1.8 2.2 3.9 2 6.2s-1.4 4.4-3.6 6.4c-2.1 1.7-4.2 2.9-6.3 3.6-2.2.7-4.3 1.1-6.3 1.2s-4 .2-5.8.1-3.5 0-5 .1-2.7.6-3.8 1.5-1.5 1.8-1.6 2.7c0 1 .2 1.9.6 2.9.5.9 1 1.8 1.6 2.5 1.2 1.4 2.3 2.2 3.5 2.6 1.2.3 2.2.5 3.1.4.9 0 1.5.2 1.8.5.3.4.3 1 0 1.8s-1.2 1.8-2.5 2.9c-3 2.6-6.1 4-9.2 4.3s-5.9-1-8.3-3.9c-2.1-2.5-3.1-5-2.9-7.5.1-2.5 1.4-4.7 3.7-6.7 1.6-1.4 3.4-2.5 5.2-3.3s3.7-1.6 5.6-2.3c2-.7 3.9-1.5 5.9-2.5s3.9-2.3 5.9-3.9c2.4-1.9 3.8-3.8 4.3-5.5.4-1.7-.2-3.6-1.8-5.5-1.3-1.6-3.3-2.5-6-2.7-2.6-.2-5.6.3-8.8 1.6-3.2 1.2-6.4 3.2-9.7 5.9-1.6 1.4-2.9 2.9-3.6 4.6-.8 1.7-1.3 3.4-1.6 5-.3 1.7-.4 3.3-.5 4.9s-.2 2.9-.4 4.1-.6 2-1.3 2.6c-.5.5-1.1.6-1.8.5-.6-.1-1.6-.8-2.8-1.9-1.2-1.2-3-3.1-5.2-5.8-1.5-1.8-2.5-3.1-3.2-4.1-.6-1-.9-1.8-.8-2.3.1-.6.4-1.1.9-1.5 1-.8 2.2-1.4 3.6-1.9 1.4-.4 3-.8 4.8-1.3 1.7-.4 3.5-1 5.4-1.8 1.8-.8 3.7-1.9 5.4-3.4 1.1-1 2.3-2.2 3.5-3.8s2.4-3.3 3.5-5.2 2-3.8 2.7-5.7 1.1-3.7 1.2-5.2c.1-1.6-.3-2.8-1.1-3.8-1-1.1-2.4-1.6-4.2-1.5s-3.9.7-6 1.7c-2.2 1-4.3 2.4-6.4 4.2-2.2 1.8-4 3.9-5.5 6.2-1.4 2.3-2.7 4.6-3.7 6.9s-2.1 4.5-3.2 6.4c-1.1 2-2.3 3.6-3.8 4.8-.8.7-1.7.6-2.5-.5-.2-.3-.8-1-1.6-2.2s-1.7-2.3-2.6-3.4c-.8-1-1.7-2-2.6-2.9-.9-1-1.7-1.8-2.2-2.4-.8-1-.7-1.9.5-2.9.7-.6 2-1.2 4-1.9s4.3-1.6 6.9-2.5 5.2-2 7.8-3.3c2.6-1.2 4.8-2.7 6.8-4.3 1.7-1.4 3-3 4-4.8s1.9-3.6 2.6-5.4 1.4-3.5 2.1-5 1.6-2.7 2.6-3.6c.8-.6 1.5-.9 2.3-.7s1.5.7 2.2 1.5c.9 1 1.5 2.1 1.8 3.4.4 1.3.7 2.6.8 3.9.2 1.3.4 2.6.7 3.7.3 1.2.7 2.1 1.3 2.8s1.5 1.4 2.5 1.8zm44 52.6c1.2 2.4 2.8 5.3 4.8 8.8 1.9 3.2 3.6 6 5.2 8.4 1.6 2.3 2.7 3.9 3.2 4.8.4.7.5 1.3.2 1.9-.2.6-.7 1.1-1.3 1.4-.8.5-2.1.8-3.8 1.1s-3.8.7-6.2 1.4-5.2 1.9-8.2 3.7c-2.2 1.3-4.5 2.9-6.7 4.8-2.3 1.9-4.4 3.9-6.4 5.8-2 2-3.9 3.7-5.5 5.3-1.6 1.5-2.9 2.6-3.8 3.1-.8.4-1.4.6-1.9.3-.5-.2-.9-.5-1.1-1-.3-.5-.6-1.3-1-2.3s-.7-1.9-1.2-2.6c-.6-1-1.3-2-2.1-3-.9-1.1-1.4-1.8-1.7-2.2-.3-.5-.4-1-.3-1.5s.4-.9.9-1.2c.7-.4 1.8-.5 3.2-.3s3.1.5 5 .7c1.9.3 3.9.3 5.9.2 2.1-.2 4.1-.8 6-1.9 1.1-.7 1.9-1.5 2.4-2.6s.3-2.3-.6-3.7c-.9-1.5-1.8-2.7-2.9-3.8s-2.2-2-3.2-3c-1-.9-1.9-2-2.6-3.2-.8-1.4-.9-2.6-.3-3.8.6-1.1 1.5-2 2.7-2.7s2.4-1 3.6-1 2.1.6 2.6 1.5c.4.7.6 1.6.7 2.6 0 1 .1 2.1.3 3.3s.7 2.5 1.5 3.9c1.4 2.4 3 3.8 4.9 4.2s3.8 0 5.7-1.1c2-1.2 3.2-2.9 3.7-5.1.4-2.2-.1-4.7-1.6-7.3-1.3-2.2-3-3.9-5.2-5-2.2-1.2-4.6-1.8-7.2-2s-5.3 0-8 .7c-2.7.6-5.3 1.6-7.6 3-3.3 1.9-5.4 4.2-6.1 6.8s-.3 5.5 1.2 8.8c.8 1.5 1 2.7.8 3.5s-.8 1.5-1.8 2.1c-2.2 1.3-4.3 1.4-6.3.2-1.9-1.2-4-3.6-6.1-7.4-1.4-2.4-2.2-4.3-2.6-5.8-.3-1.5-.3-2.6 0-3.4.4-.8.9-1.4 1.6-1.8s1.7-.7 3.2-1.1c1.5-.3 3.2-.7 5.1-1.1s3.9-1 6.1-1.7c2.1-.7 4.1-1.6 6.1-2.7 3.2-1.9 5.9-3.5 8.2-4.9 2.2-1.4 4.2-2.7 5.7-3.8 1.6-1.1 2.9-2 4-2.8s2.1-1.4 3-1.9c.5-.3 1.1-.4 1.7-.3s1.1.5 1.5 1.3c.5 1.3 1.4 3 2.6 5.4zm-5.5 57.9c-2.1 2-4 4.1-5.6 6.2-1.7 2.2-3.2 4.1-4.6 5.8s-2.6 2.8-3.7 3.2c-1 .5-1.7.2-2.2-.9-.2-.5-.6-1.4-1.2-3-.6-1.5-1.2-3-1.9-4.4-.7-1.5-1.4-3.1-2.2-4.7s-1.4-2.9-1.8-3.8c-.6-1.3-.2-2.2 1.2-2.8.7-.3 1.8-.5 3.3-.5h5.4c2 0 4.2.1 6.4 0 2.3 0 4.5-.2 6.7-.5s4.2-.9 6.1-1.7c2.6-1.2 4.8-2.5 6.7-4.1s3.6-3.1 5-4.6 2.6-2.8 3.5-4c.9-1.1 1.6-1.8 2.2-2.1 1.2-.5 2.1-.1 2.8 1.3.2.5.5 1.2.9 2.2s.8 2 1.3 3c.5 1.1 1 2.2 1.5 3.2s.9 1.8 1.1 2.3c.2.6.3 1 0 1.4-.2.4-.6.7-1 .9-.6.3-1.7.4-3.2.3s-3.3-.1-5.4-.1-4.4.1-6.8.5c-2.4.3-4.9 1.1-7.5 2.2-2.7 1.1-5 2.7-7 4.7zm45 31.1c.3 2.3.6 4.5.8 6.8.3 2.3.6 4.3 1.2 6.1.4 1.5 1 2.6 1.7 3.3s1.4 1.2 2 1.6 1 .8 1.1 1.3c.2.6-.1 1.2-.8 1.8s-1.6 1.1-2.6 1.5-2 .8-2.8 1c-2.6.8-4.9.9-6.9.3-2-.5-3.3-2.1-4.1-4.7-.5-1.7-.7-3.7-.5-5.7.2-2.1.5-4.2 1-6.4s.8-4.3 1.1-6.3.2-3.8-.3-5.3c-.5-1.7-1.2-2.8-2.2-3.4-1-.5-2.1-.6-3.4-.3-1.4.4-2.5 1.3-3.3 2.6s-1.4 2.9-1.7 4.7-.5 3.6-.6 5.5 0 3.6.2 5.2.4 2.8.6 3.7c.6 2.2 1.3 3.8 2.1 5s1.5 2.1 2.1 2.8 1 1.3 1.2 1.8c.1.4.1.8-.1 1.2s-.8.7-1.7 1c-3 .9-5.5 1.1-7.6.8s-3.5-1.7-4.2-4.1c-.3-1.1-.3-2.3 0-3.6s.8-2.6 1.5-4 1.3-2.8 1.9-4.1c.6-1.4 1.1-2.6 1.5-3.9.3-1.2.4-2.3.1-3.3s-.9-1.7-1.7-2c-.9-.3-1.8-.3-2.9 0-2.1.6-3.7 1.8-5 3.5s-2.3 3.7-3.2 5.9c-.8 2.2-1.6 4.5-2.3 6.6-.7 2.2-1.5 4.1-2.3 5.7s-2 2.6-3.3 3c-.9.3-1.7.2-2.5-.3-.8-.4-1.3-1.3-1.7-2.7-.5-1.7-.9-3.6-1.3-5.8s-.9-4.3-1.5-6.4c-.5-1.8-1-3.3-1.6-4.6-.5-1.2-1-2.4-1.3-3.5s0-1.7.8-2c.2-.1.5-.1.8 0s.7.2 1.1.4c1.7 1 3.6 1.8 5.9 2.3 2.2.5 4.4.5 6.6-.2 2.6-.7 5.1-1.9 7.4-3.3 2.4-1.5 4.6-3 6.8-4.7s4.3-3.2 6.3-4.5c2-1.4 3.9-2.3 5.7-2.8 3-.9 5.4-.7 7.1.4 1.7 1.2 3 3.1 3.8 5.9.3 2 .7 4 1 6.2zm10.9 43.6c-.1.9-.1 1.8-.1 2.7s0 1.6.1 2.2c.2 1.2.6 2.5 1.1 3.7.6 1.2.9 2.3 1.1 3.4.2 1 0 2.3-.6 3.8s-1.6 3-3.1 4.6c-1.5 1.5-3.4 2.9-5.9 4.2-2.4 1.2-5.4 2.1-8.9 2.7-1.8.3-3.6.3-5.5.1-1.8-.2-3.7-.6-5.5-1s-3.6-.7-5.3-1-3.1-.3-4.4-.1c-1.2.2-2.3.5-3.1.8s-1.9.6-3.1.8c-1.3.2-2.5-.1-3.5-.9s-2-2.4-2.8-4.6-1.6-5.3-2.2-9.3c-.7-4.5-.9-8-.7-10.7.3-2.7 1.5-4.2 3.7-4.5.5-.1 1.4-.2 2.5-.2 1.1-.1 2.1-.2 2.9-.3 1.5-.2 3.2-.8 5.2-1.8s4.2-2 6.7-3 5.2-1.8 8.2-2.3c4.7-.7 8.7-.8 12.1-.1s6 1.9 7.9 3.5 3 3.3 3.3 5.2c-.1.5-.1 1.2-.1 2.1zm-11.6-8c-1.6-1-3.7-1.2-6.4-.8-1.9.3-3.6.9-5.1 1.8s-2.9 1.9-4.1 3-2.5 2.3-3.8 3.4-2.6 2.1-4.1 2.9c-2.3 1.3-3.9 2.5-4.9 3.8s-1.7 2.6-1.9 4.1c-.2 1.4-.1 3 .1 4.7.5 3.3 1.8 5.5 3.7 6.7 2 1.2 4.1 1.6 6.3 1.3 1.5-.2 3.4-.9 5.5-1.8 2.2-1 4.3-2.3 6.5-3.8 2.2-1.6 4.2-3.3 6-5.4 1.8-2 3.2-4.2 4.2-6.6s1.2-4.9.8-7.5c-.2-2.9-1.2-4.8-2.8-5.8zm15.6 41.1c.5.5.7 1.1.7 1.8s0 1.4-.1 2.2c-.1.7-.1 1.5-.1 2.3l.3 2.7c.1.8.2 1.6.2 2.3 0 1.2-.6 1.7-1.9 1.8-.8 0-1.7-.1-2.7-.3-1.1-.2-2.1-.4-3.2-.3-.5 0-1 .2-1.6.5-.5.3-.8 1-.8 1.9 0 .8.4 1.7 1.1 2.6s1.7 1.8 2.8 2.9c1.1 1 2.2 2.1 3.3 3.3s2.1 2.5 2.8 4c.8 1.5 1.2 3.1 1.2 4.8.1 2.4-.7 4.4-2.3 6.1s-3.9 2.6-6.8 2.7c-2.7.1-5.1-.3-7.1-1.1s-3.9-1.8-5.5-3-3.1-2.4-4.5-3.6-2.7-2.3-4-3.1-2.7-1.2-4.2-1.2c-1.4 0-2.5.4-3.2 1.2-.7.7-1.2 1.6-1.5 2.7-.2 1.1-.4 2-.3 2.9.1 2 .5 3.5 1.2 4.5.8 1 1.6 1.8 2.6 2.5.3.3.5.5.8.7.2.2.3.4.3.6 0 .5-.3.9-1.1 1.2-.7.3-1.8.5-3.3.5-2.1.1-4.2-.2-6.5-.8-2.2-.6-4.1-1.6-5.6-3.1s-2.3-3.6-2.4-6.2c-.1-3.2.8-5.8 2.6-7.7s4.3-3 7.6-3c2.1-.1 4.1.1 5.9.6 1.9.4 3.7 1 5.7 1.6 1.9.6 3.9 1.1 5.9 1.6 2 .4 4.3.6 6.9.6 2.9-.1 5-.6 6.3-1.7s2-2.8 1.9-5.3c-.1-2.1-1-4-2.9-5.9-1.9-1.8-4.4-3.3-7.6-4.3-3.2-1.1-6.8-1.6-11-1.5-2.1.1-4 .5-5.7 1.3s-3.2 1.8-4.5 3-2.5 2.3-3.6 3.5-2 2.2-2.9 3-1.7 1.2-2.4 1.2-1.2-.2-1.7-.7-.8-1.6-1-3.2c-.2-1.7-.4-4.3-.5-7.8-.1-2.9 0-5 .1-6.4s.4-2.4.8-2.8.9-.6 1.6-.7c1.1 0 2.4.3 3.8 1.1 1.4.7 3 1.6 4.7 2.6s3.6 1.9 5.6 2.6 4.2 1 6.5 1c2.7-.1 5.5-.6 8.2-1.5s5.3-2 7.7-3.1c2.4-1.2 4.6-2.2 6.5-3.1s3.5-1.4 4.7-1.4c1-.4 1.7-.1 2.2.4zm-20.9 70.5c-.8-.1-1.7-.7-2.8-1.9s-2.4-2.5-3.9-4-3.1-2.9-4.9-4.1c-1.7-1.2-3.7-2-5.7-2.2-2.3-.3-4.1.5-5.3 2.3s-2 4.1-2.3 6.9c-.6 4.8.6 8.5 3.6 11s7.1 4.1 12.4 4.6c3.9.4 7.1.1 9.8-1.1 2.6-1.2 4.6-2.9 6-5.1s2.3-4.7 2.6-7.4c.2-2 .2-3.8-.2-5.5-.3-1.7-.8-3.3-1.4-4.7s-1.1-2.6-1.5-3.7-.6-1.9-.5-2.6c.1-.5.3-.9.6-1.1s.8-.2 1.4-.1 1.2.2 1.7.3 1.1.1 1.6.2c1.5.2 2.7.2 3.8.1s2.1-.1 3 0 1.7.6 2.4 1.5 1.1 2.4 1.4 4.5c.2 2.1.1 5.1-.3 9-.9 8.4-3.3 14.6-7.2 18.6-3.9 4.1-8.7 5.8-14.3 5.1-2.2-.2-4.3-.8-6.2-1.7-2-.9-3.8-1.8-5.5-2.9s-3.4-2-4.9-2.8-3-1.3-4.4-1.5c-1.5-.2-3 .1-4.4.7-1.5.6-2.8 1.2-4.1 1.9-1.2.7-2.3 1-3.2.9-.4 0-.9-.2-1.3-.6s-.6-.9-.5-1.7.3-2 .7-3.5.7-3.3 1.2-5.2c.4-1.9.7-3.9.9-6 .2-1.5.3-3.1.3-4.9.1-1.8.1-3.5.1-5.3V422c0-1.3 0-2.3.1-2.9.1-.8.3-1.4.6-1.9s.9-.7 1.6-.6c.8.1 1.6.5 2.4 1.1.8.7 1.5 1.4 2.4 2.3.8.9 1.7 1.6 2.8 2.3 1 .7 2.2 1.1 3.6 1.3 1.7.2 3.3 0 4.7-.6s2.9-1.1 4.4-1.7 3.2-.7 5-.5c1.4.2 2.5.8 3.3 2s1.4 2.6 1.7 4.3c.4 1.7.6 3.4.6 5.1s0 3.1-.1 4.2c-.1 1.7-.7 2.3-1.8 2.2zm11 47.4c-1.6 1.3-3.4 1.7-5.4 1.2-1.4-.3-2.8-1.1-4.3-2.2s-3-2.5-4.5-4c-1.5-1.6-3.1-3.1-4.7-4.7s-3.2-2.9-4.8-4.1-3.3-2-4.9-2.4c-1.1-.3-2.3-.3-3.4 0s-2.2.9-3.1 1.9-1.6 2.5-2.1 4.4c-.8 3-.6 5.9.5 8.5s2.9 4.8 5.5 6.7 5.7 3.3 9.4 4.2c2.8.7 5.2.9 7.4.7 2.1-.3 4-.7 5.7-1.4 1.6-.7 3-1.3 4.1-1.8s2-.7 2.7-.5c.6.1 1 .5 1.2 1s.3 1.2 0 2c-.1.5-.3 1.2-.7 2.3-.3 1-.6 2.2-1 3.4-.3 1.2-.7 2.4-.9 3.5-.2.9-.5 2.2-.9 3.7-.3 1.6-.7 3-1 4.1-.2.6-.4 1.1-.8 1.3s-.9.3-1.4.1c-.6-.2-1.3-.7-2.1-1.8-.7-1-1.6-2.3-2.5-3.7-1-1.5-2.1-3-3.3-4.5-1.3-1.5-2.7-2.9-4.4-4.2s-3.6-2.2-5.8-2.7c-2.6-.6-5-.9-7.4-.7-2.3.2-4.6.6-6.6 1.3-2.1.7-4 1.4-5.7 2.1s-3.3 1.3-4.6 1.8-2.4.6-3.3.4c-1-.3-1.8-1-2.3-2.2s-.4-3.1.2-5.7c.7-2.8 1.5-4.7 2.4-5.6s2.1-1.2 3.7-.8c1.2.3 2.4.8 3.5 1.6 1.1.7 2.3 1.3 3.5 1.6.8.2 1.5.2 2.1-.1.6-.2 1.1-.9 1.3-2 .3-1.4 0-2.6-.9-3.6-1-1-2.2-1.8-3.7-2.5-1.9-1-3.4-2-4.6-3.1s-1.9-2.4-2.3-3.9-.3-3.3.3-5.4c.5-1.9 1.3-3.6 2.5-5.2s2.6-2.9 4.3-3.7 3.5-1 5.5-.5c1.5.4 3 1.1 4.3 2 1.3 1 2.6 2 4 3.2 1.3 1.2 2.8 2.2 4.3 3.2s3.3 1.8 5.3 2.3c3.8 1 6.9 1.4 9.5 1.4 2.5 0 4.6-.2 6.2-.7 1.6-.4 2.9-.9 3.9-1.3s1.8-.5 2.4-.4c1.1.3 1.8 1.2 2 2.6.2 1.5 0 3.6-.7 6.5-.8 2.8-2 5.1-3.6 6.4zm-53.6 23.7c5.5-1.8 12.6-1 21.1 2.3 6.2 2.5 10.9 5 14 7.6s4.9 5.3 5.5 8.1.3 5.8-1 8.9c-.4 1-1 2.1-1.9 3.3-.8 1.2-1.7 2.4-2.6 3.7s-1.6 2.5-2 3.6c-.5 1.4-.8 2.5-.6 3.4.1.9.3 1.7.5 2.3s.2 1.1.1 1.5c-.3.7-.9 1-1.8 1s-2-.1-3.1-.4-2.2-.6-3.2-1c-2.4-1-4.1-2.2-5-3.8-1-1.6-.9-3.6.1-6.2.6-1.6 1.6-3.1 2.9-4.5 1.3-1.3 2.7-2.6 4.2-3.9 1.5-1.2 2.9-2.5 4.3-3.9 1.3-1.4 2.3-2.9 2.9-4.5.5-1.3.6-2.6.2-3.9-.4-1.4-1.3-2.3-2.9-3-1.6-.6-3.2-.6-4.8 0s-3.1 1.6-4.6 3c-1.4 1.4-2.7 2.9-3.9 4.7-1.1 1.7-2 3.5-2.7 5.1-.7 1.8-1.1 3.4-1.1 4.8 0 1.3 0 2.5.1 3.3.1.9.1 1.6-.1 2.1-.1.4-.4.6-.7.7s-.8 0-1.4-.3c-3.2-1.3-5.5-2.6-7.1-3.9s-2-3-1.1-5.1c.5-1.2 1.2-2.1 2.1-2.8 1-.7 2.1-1.4 3.3-1.9 1.3-.6 2.5-1.2 3.8-1.8s2.4-1.4 3.4-2.4 1.9-2.2 2.5-3.8c.6-1.5.6-2.8-.1-4.1s-1.9-2.3-3.5-2.9c-1.8-.7-3.9-.9-6.1-.4-2.2.4-4.4 1.5-6.3 3.1-2 1.6-3.5 3.9-4.6 6.7-1 2.6-1.5 4.9-1.5 6.8.1 1.9.3 3.6.9 5 .5 1.4 1 2.6 1.4 3.6s.5 1.8.3 2.5c-.2.6-.8.9-1.6 1s-2-.2-3.5-.8c-2.7-1.1-4.7-2.7-6.1-4.8-1.4-2.2-2.2-4.6-2.4-7.3s.3-5.4 1.3-8c2.8-6.6 6.9-10.9 12.4-12.7z" fill="#5f8e5d"/><path d="M688.7 645c-1.1.9-2.5 2.1-4 3.7-1.3 1.3-2.5 2.7-3.5 4.1s-2 2.6-3 3.6c-.4.4-.8.6-1.3.5-.4-.1-.8-.3-1.2-.6-.4-.4-.6-1.1-.5-2.2s.2-2.4.3-3.9.1-3.2 0-5.1-.6-3.8-1.5-5.8-2.3-3.9-4.3-5.9c-1.5-1.5-3.1-2.6-4.8-3.5s-3.3-1.2-5-1.1c-1.6.1-3.1.8-4.4 2.2-1.3 1.3-2 2.7-2 4-.1 1.3.3 2.6.9 3.8.7 1.2 1.5 2.2 2.4 3.2 2 1.9 3.7 3.3 5.3 4.1 1.5.8 2.9 1.4 4 1.8s2.1 1 2.8 1.6.9 1.6.5 2.8-1.4 2.6-3 4.3-2.9 2.7-4 3.1-2 .2-2.7-.5c-.6-.6-1.2-1.3-1.8-2.1s-1.3-1.7-2.2-2.8-2-2.3-3.5-3.8c-2.6-2.5-5.1-4-7.4-4.4s-4.8.6-7.2 3.2c-1.2 1.2-1.9 2.7-2 4.3-.2 1.6.1 3.3.9 5.1s1.9 3.4 3.5 4.9c1.5 1.5 3.2 2.4 5 2.8s3.6.6 5.5.4 3.8-.5 5.6-1 3.6-1 5.2-1.5 3-.8 4.2-1 2 0 2.6.5c.4.4.6.8.6 1.3s-.2 1-.8 1.6c-.4.4-1.1 1-2.2 1.8-1 .7-2 1.6-2.8 2.5-.8.8-1.6 1.8-2.4 3.1s-1.7 2.4-2.7 3.4c-1.8 1.8-3.8 2.6-6.2 2.4s-4.7-1.5-7-3.6c-1.5-1.5-2.8-3.1-3.9-4.8s-2.2-3.6-3.2-5.7-2.1-4.2-3.3-6.5c-1.1-2.3-2.5-4.7-4.1-7.3-1.6-2.5-3.5-5.2-5.8-8-1.2-1.4-1.9-2.7-2.3-3.8s-.2-2 .4-2.7c1.5-1.6 3.2-2.5 5.1-2.7s3.9 0 5.9.6c2.1.6 4.1 1.5 6.1 2.5s3.9 2 5.7 3c1.7 1 3.2 1.7 4.4 2.2s2.1.5 2.6-.1c.5-.5.5-1.4.2-2.8-.4-1.4-.9-3-1.8-5-.8-1.9-1.7-4-2.6-6.2s-1.7-4.3-2.3-6.5c-.6-2.1-.9-4.1-.9-5.9s.6-3.3 1.7-4.4c1-1 2.1-.8 3.5.5.9.9 2 2 3.3 3.4s2.8 3 4.6 4.8c3.6 3.5 7.2 6.3 10.9 8.4 3.6 2.1 7 3.8 10.1 5s5.7 2.2 7.9 3 3.6 1.4 4.2 2.1c1 1 1 2-.1 3.2-.2.8-1 1.5-2.2 2.4zM634 696.8c-2.2 1.4-4.9 3.4-8.2 5.8-3 2.2-5.6 4.3-7.7 6.2s-3.6 3.1-4.4 3.7c-.6.5-1.2.6-1.8.4s-1.1-.5-1.6-1.1c-.6-.7-1.1-2-1.5-3.6-.5-1.7-1.2-3.7-2.1-6-1-2.3-2.5-4.9-4.6-7.7-1.6-2.1-3.4-4.1-5.6-6.1s-4.4-3.9-6.6-5.7-4.2-3.4-5.9-4.8-2.9-2.6-3.6-3.5c-.5-.7-.7-1.3-.6-1.8.2-.5.4-.9.8-1.2.5-.4 1.2-.8 2.2-1.3s1.8-1 2.4-1.5c.9-.7 1.8-1.5 2.7-2.5s1.6-1.6 2-1.9.9-.5 1.4-.4c.5 0 .9.3 1.3.7.5.7.7 1.7.7 3.2 0 1.4-.1 3.1-.2 5s.1 3.9.5 5.9 1.3 4 2.6 5.8c.8 1.1 1.7 1.8 2.9 2.1 1.1.3 2.3 0 3.6-1 1.4-1 2.5-2.1 3.4-3.3s1.8-2.4 2.6-3.5 1.7-2.1 2.8-3c1.3-1 2.5-1.2 3.7-.8s2.2 1.2 3 2.3c.9 1.1 1.3 2.3 1.4 3.5s-.3 2.1-1.2 2.8c-.7.5-1.5.8-2.5 1s-2.1.4-3.3.7-2.4 1-3.7 1.9c-2.2 1.7-3.4 3.4-3.6 5.4-.2 1.9.4 3.8 1.7 5.5 1.4 1.8 3.2 2.9 5.5 3 2.3.2 4.6-.6 7.1-2.5 2-1.5 3.5-3.4 4.4-5.7s1.3-4.7 1.2-7.4c-.1-2.6-.6-5.3-1.6-7.9-.9-2.6-2.2-5-3.9-7.2-2.3-3.1-4.8-4.8-7.5-5.3-2.7-.4-5.5.3-8.6 2.3-1.4.9-2.6 1.3-3.4 1.2s-1.6-.6-2.3-1.6c-1.6-2.1-1.8-4.1-.9-6.2 1-2.1 3.2-4.4 6.6-7 2.2-1.7 4-2.7 5.4-3.2s2.5-.6 3.4-.4c.8.3 1.5.7 2 1.4.5.6.9 1.6 1.4 3.1.5 1.4 1.1 3.1 1.7 5s1.4 3.8 2.4 5.8c.9 2 2.1 3.9 3.4 5.7 2.2 2.9 4.2 5.5 5.9 7.5 1.7 2.1 3.2 3.8 4.4 5.3 1.2 1.4 2.3 2.7 3.2 3.7s1.7 1.9 2.3 2.8c.4.5.5 1 .5 1.7 0 .6-.4 1.2-1.1 1.7s-2.3 1.5-4.5 3zm-34.3 24.8c-.3.6-1.1 1.2-2.3 1.8-3.1 1.7-5.7 2.7-7.7 3.1-2 .3-3.3-.2-4-1.4-.5-1-.8-2.1-1-3.4-.1-1.3-.2-2.7-.2-4.1s-.1-2.9-.3-4.4-.6-2.8-1.3-4c-.6-1.2-1.5-2.1-2.7-2.7-1.1-.7-2.5-.5-4.2.4-1.9 1-3.2 2.5-4 4.3-.8 1.9-1.1 3.8-1 5.9s.6 4 1.5 5.6c.6 1.1 1.4 2.2 2.3 3.1 1 1 1.9 1.9 2.8 2.7s1.5 1.5 1.8 2.1.4 1.1.3 1.6-.6.9-1.4 1.4c-.9.5-1.9 1-3 1.5l-3.3 1.5c-1 .5-1.8.8-2.3 1.1-.7.4-1.7 1-2.9 1.8s-2.2 1.4-3.1 1.9c-.6.3-1.1.4-1.5.3s-.6-.4-.8-.7c-.8-1.5-1.2-3.1-1-4.9s.6-3.5 1.4-5.4c.8-1.8 1.6-3.7 2.6-5.6s1.8-3.7 2.6-5.5 1.3-3.5 1.5-5.1 0-3.1-.8-4.4c-.9-1.7-2.4-3-4.5-4s-4.4-1.4-6.9-1.3-4.9.7-7.1 1.9c-.5.3-1 .6-1.6 1s-1 .6-1.3.8c-1.3.7-2.4.3-3.3-1.2-1-1.8-1.7-3.7-2.2-5.7s-.5-3.9 0-5.8 1.9-3.4 4.1-4.6c3.3-1.8 6.1-2.1 8.6-.8s4.9 3.7 7.3 7.2c1.6 2.5 3.2 4.4 4.6 5.8s3 2.1 4.6 2.3 3.5-.3 5.6-1.5c1.8-1 3.1-2.2 3.8-3.8.8-1.5.6-3.2-.4-5-.7-1.3-1.9-2.4-3.4-3.2s-3.1-1.4-4.9-1.8-3.5-.8-5.2-1.2-3.2-.8-4.5-1.3-2.2-1.2-2.7-2.1c-.6-1-.3-1.8.7-2.4.3-.2.9-.5 1.8-.9s1.9-.9 3.1-1.5c1.1-.5 2.2-1.1 3.2-1.6 1.5-.8 3-1.7 4.4-2.6 1.5-.9 2.6-1.6 3.6-2.1.5-.3 1.1-.4 1.6-.2s1 .6 1.3 1.2c.4.7.7 2 1 4.1s.6 4.5 1 7.3 1 5.6 1.7 8.4c.7 2.9 1.7 5.4 3 7.7 1.7 3.1 3.3 5.6 5 7.4 1.6 1.9 3.1 3.4 4.4 4.5 1.4 1.1 2.5 2 3.5 2.6.9.6 1.6 1.2 1.9 1.8.5.9.5 1.6.2 2.1zm-57 28.4c-2.5.8-5.7 1.8-9.4 3.3-3.5 1.3-6.5 2.6-9.1 3.8s-4.3 2-5.2 2.3c-.7.3-1.3.2-1.9-.1-.5-.3-.9-.8-1.2-1.5-.3-.9-.5-2.2-.5-3.9s-.1-3.9-.4-6.4-1-5.4-2.3-8.7c-.9-2.4-2.1-4.9-3.7-7.4-1.5-2.5-3.1-5-4.7-7.3s-3.1-4.4-4.3-6.3c-1.3-1.8-2.1-3.3-2.5-4.3-.3-.8-.3-1.5 0-1.9.3-.5.7-.8 1.1-1 .6-.2 1.4-.4 2.4-.6s2-.4 2.7-.7c1-.4 2.1-.9 3.3-1.6s2-1.1 2.5-1.3 1-.2 1.5 0 .8.5 1 1c.3.8.2 1.8-.2 3.2s-1 3-1.5 4.8c-.6 1.8-1 3.7-1.1 5.8s.1 4.2.9 6.3c.5 1.2 1.2 2.2 2.2 2.8s2.2.7 3.8.1 3-1.4 4.2-2.3 2.4-1.8 3.4-2.7c1.1-.9 2.3-1.6 3.5-2.1 1.5-.6 2.7-.5 3.8.3 1 .8 1.8 1.8 2.3 3.1s.6 2.6.4 3.7c-.3 1.2-.9 1.9-1.9 2.3-.8.3-1.7.4-2.6.3-1-.1-2.1-.2-3.4-.2-1.2 0-2.6.2-4.1.8-2.6 1-4.2 2.4-4.9 4.2s-.7 3.7.1 5.8c.8 2.2 2.3 3.6 4.4 4.5 2.1.8 4.6.7 7.5-.4 2.4-.9 4.3-2.3 5.8-4.3s2.6-4.2 3.2-6.8.8-5.2.7-8c-.2-2.8-.8-5.5-1.7-8-1.4-3.6-3.3-6-5.8-7.1s-5.4-1.2-8.9-.2c-1.6.5-2.8.6-3.6.2s-1.4-1.1-1.8-2.1c-.9-2.4-.6-4.5.9-6.2s4.2-3.3 8.3-4.9c2.6-1 4.6-1.5 6.1-1.6s2.6.1 3.4.6c.7.5 1.3 1.1 1.6 1.9.3.7.5 1.8.5 3.4.1 1.5.2 3.3.3 5.2.1 2 .3 4 .6 6.2s.9 4.3 1.7 6.5c1.3 3.4 2.5 6.4 3.5 8.8 1.1 2.5 2 4.5 2.8 6.3.8 1.7 1.5 3.2 2.1 4.4s1.1 2.3 1.4 3.3c.2.6.2 1.1 0 1.7s-.7 1-1.5 1.3c-1.4.4-3.2 1-5.7 1.7zm-60.1 15c-.9.7-1.7 1.5-2.5 2.4s-1.6 1.7-2.4 2.3c-.8.7-1.7 1.1-2.7 1.3-2.1.4-3.6-.1-4.6-1.5s-1.8-3.1-2.2-5.2c-.2-.7-.5-1.3-.8-1.6s-.8-.4-1.6-.2-1.6.7-2.3 1.5-1.5 1.8-2.3 3-1.7 2.4-2.7 3.6-2.1 2.3-3.4 3.3c-1.3.9-2.8 1.6-4.4 1.9-2.3.4-4.4 0-6.4-1.3-1.9-1.3-3.2-3.4-3.8-6.3-.5-2.6-.5-5.1 0-7.3s1.2-4.3 2-6.1c.9-1.8 1.8-3.5 2.8-5.1s1.7-3 2.4-4.4c.6-1.4.8-2.7.5-4s-.8-2.2-1.6-2.7-1.8-.8-2.8-.8c-1-.1-2 0-2.9.2-1.8.3-3.1.9-3.9 1.8s-1.5 1.7-1.9 2.5-.9 1.2-1.3 1.3-1-.2-1.5-.9-.9-1.9-1.3-3.6c-.7-3.9-.5-7.3.8-10.1s3.7-4.6 7.5-5.3c3.2-.6 5.8-.2 7.9 1.1s3.4 3.5 4 6.5c.4 2.1.5 4.2.4 6.1-.2 2-.4 4-.7 6.1s-.6 4.2-.7 6.3c-.1 2.2.1 4.5.6 7.1.5 3 1.4 5.2 2.7 6.4s3.2 1.6 5.7 1.1c2.1-.4 3.8-1.7 5.3-3.9s2.4-5 2.9-8.4.4-7.2-.4-11.3c-.4-2.1-1.1-3.9-2.2-5.4s-2.3-2.8-3.6-3.8c-1.3-1.1-2.7-2-4-2.9-1.3-.8-2.4-1.6-3.3-2.3s-1.5-1.5-1.6-2.4c-.1-.7 0-1.3.4-1.8s1.4-1 3-1.5 4.1-1.1 7.6-1.7c2.3-.4 4-.7 5.2-.7 1.2-.1 2 .1 2.4.4.5.3.8.9.9 1.6.2 1.2.2 2.6-.1 4.1s-.7 3.1-1.2 4.8-.8 3.6-1 5.6-.1 4.1.3 6.4c.3 1.5.8 3.1 1.6 4.9s1.7 3.7 2.8 5.6 2.3 3.6 3.7 5.1c1.3 1.5 2.7 2.7 4 3.6 1.3.8 2.6 1.1 3.9.9 1.5-.3 2.6-1.2 3.4-2.9s1.3-3.7 1.4-6.1c.2-2.4 0-5-.5-7.7-.5-2.8-1.5-5.4-2.7-7.8-1.3-2.4-2.7-4.6-4.2-6.6s-2.9-4-4.1-5.9-2-3.8-2.3-5.7c-.2-1.1.3-1.7 1.6-2 .4-.1 1.3-.2 2.8-.3s2.9-.3 4.2-.6c1.2-.2 2.5-.5 3.9-.9 1.3-.3 2.4-.6 3.1-.7 1.2-.2 2 .4 2.3 1.8.2.9.1 2.3-.2 4.4s-.7 4.5-1.2 7.2-.8 5.5-1 8.4 0 5.5.4 8c.4 2.2 1.2 4.1 2.2 5.9 1.1 1.8 2.2 3.4 3.5 4.9 1.2 1.5 2.4 2.9 3.3 4.3 1 1.4 1.6 2.7 1.9 4.1.2 1 0 1.8-.6 2.4s-1.3 1-2.4 1.2c-1.3.2-2.6.2-3.9-.1s-2.6-.7-3.8-1.2-2.4-.9-3.6-1.2-2.2-.4-3.1-.2c-1.7-.1-2.7.3-3.6 1zm-67.3 12.6c-2.6-.2-6-.2-10-.1-3.7.1-7 .2-9.9.5-2.8.3-4.7.4-5.7.4-.8 0-1.4-.2-1.7-.7-.4-.5-.6-1.1-.6-1.8 0-.9.3-2.2.9-3.9.6-1.6 1.2-3.7 1.8-6.1.6-2.5.9-5.4.8-9 0-2.6-.3-5.3-.9-8.2s-1.2-5.7-2-8.5c-.7-2.7-1.4-5.2-1.9-7.4-.6-2.2-.8-3.8-.9-4.9 0-.9.2-1.5.6-1.8s.9-.5 1.4-.5c.6 0 1.4.1 2.5.2 1 .2 2 .3 2.8.2 1.1 0 2.3-.1 3.7-.4 1.3-.2 2.3-.4 2.8-.4.6 0 1 .1 1.4.5.4.3.6.8.6 1.3 0 .8-.4 1.8-1.3 3-.9 1.1-1.9 2.5-3.1 4s-2.2 3.2-3.1 5.1-1.3 4-1.3 6.2c0 1.3.4 2.4 1.1 3.4.7.9 1.9 1.4 3.5 1.3 1.7 0 3.3-.3 4.7-.7 1.5-.4 2.8-.9 4.1-1.3 1.3-.5 2.7-.7 4-.7 1.6 0 2.7.5 3.4 1.6s1.1 2.3 1.1 3.7-.3 2.6-.9 3.6-1.5 1.5-2.6 1.5c-.8 0-1.7-.2-2.6-.7s-1.9-.9-3.1-1.4c-1.2-.4-2.5-.7-4.1-.6-2.7 0-4.8.8-6 2.2-1.3 1.5-1.9 3.3-1.9 5.5 0 2.3.9 4.2 2.6 5.7s4.1 2.2 7.2 2.2c2.5 0 4.8-.7 6.9-2.1 2.1-1.3 3.8-3.1 5.3-5.3 1.4-2.2 2.6-4.6 3.3-7.3.8-2.7 1.2-5.4 1.1-8.1-.1-3.9-1.1-6.7-3-8.7-1.9-1.9-4.7-3-8.3-3.2-1.7-.1-2.9-.4-3.5-1s-.9-1.5-1-2.6c0-2.6.9-4.4 2.9-5.5s5.1-1.7 9.4-1.8c2.8 0 4.8.1 6.3.6 1.4.4 2.4 1 3 1.7.5.7.8 1.5.8 2.3s-.2 1.9-.6 3.4-1 3.1-1.5 5c-.6 1.9-1.1 3.9-1.5 6.1s-.6 4.4-.6 6.7c.1 3.7.2 6.9.3 9.5.2 2.7.3 4.9.5 6.8s.3 3.5.5 4.9c.1 1.3.2 2.5.2 3.6 0 .6-.2 1.1-.6 1.6s-1 .7-1.8.7c-.9-.1-2.8-.2-5.5-.3zm-47.9-33.1c-.7-2.8-1.6-5.5-2.7-8s-2-4.8-2.8-6.8-1.1-3.6-1-4.8c.1-1.1.7-1.6 1.9-1.5.5 0 1.6.2 3.2.4s3.2.4 4.8.5 3.4.2 5.2.3 3.2.2 4.2.2c1.4.1 2 .9 1.9 2.4-.1.8-.5 1.8-1.2 3.2-.7 1.3-1.6 2.9-2.6 4.7s-2.1 3.6-3.2 5.6-2 4-2.8 6.1-1.3 4.1-1.4 6.2c-.2 2.8-.1 5.4.3 7.9.5 2.4 1 4.6 1.6 6.6s1.2 3.6 1.8 5c.5 1.3.8 2.3.7 2.9-.1 1.3-.9 1.9-2.5 1.8-.5 0-1.3-.1-2.4-.3-1-.1-2.1-.3-3.3-.4s-2.4-.2-3.5-.2-2-.1-2.5-.1c-.6-.1-1-.3-1.2-.6-.2-.4-.3-.8-.3-1.3.1-.7.5-1.6 1.3-2.9s1.7-2.8 2.8-4.6c1-1.8 2-3.9 2.9-6.2s1.5-4.8 1.7-7.6c.1-2.9-.2-5.7-.9-8.5zm-49.1 24.2c-2.1-.9-4.2-1.7-6.4-2.6-2.1-.9-4.1-1.5-5.9-1.9-1.6-.4-2.8-.4-3.7-.1s-1.7.6-2.4 1c-.6.4-1.2.5-1.7.4-.6-.1-1-.7-1.2-1.6s-.2-1.9-.1-3.1c.1-1.1.3-2.1.5-3 .6-2.7 1.6-4.7 3.1-6.2 1.4-1.4 3.5-1.9 6.1-1.3 1.8.4 3.5 1.2 5.2 2.4s3.4 2.5 5.1 4 3.3 2.8 5 4c1.6 1.2 3.2 2 4.8 2.3 1.7.4 3.1.3 4-.3 1-.6 1.6-1.5 1.9-2.8.3-1.4.1-2.8-.7-4.1-.8-1.4-1.8-2.6-3.2-3.8s-2.9-2.2-4.5-3.2-3.2-1.8-4.7-2.4-2.7-1-3.5-1.2c-2.2-.5-4-.7-5.4-.6s-2.6.3-3.5.5-1.7.3-2.2.1c-.4-.1-.8-.3-1-.7s-.2-1 0-1.9c.7-3 1.7-5.3 3-7s3.2-2.2 5.6-1.7c1.1.3 2.2.8 3.1 1.7 1 .9 1.9 2 2.8 3.2.9 1.3 1.8 2.5 2.7 3.7s1.8 2.3 2.7 3.2 1.9 1.4 2.9 1.7c1 .2 1.9.1 2.6-.5s1.2-1.4 1.4-2.5c.5-2.1.3-4.1-.6-6.1s-2.1-3.8-3.6-5.7c-1.6-1.8-3.1-3.6-4.7-5.3s-2.8-3.3-3.8-4.8-1.3-3-1-4.4c.2-.9.7-1.6 1.4-2 .8-.4 1.8-.5 3.2-.2 1.7.4 3.6 1 5.7 1.7s4.2 1.3 6.3 1.8c1.8.4 3.4.7 4.8.8s2.6.3 3.7.6c1.1.2 1.5.8 1.3 1.7 0 .2-.2.4-.4.7s-.5.5-.9.8c-1.7 1-3.3 2.3-4.9 4-1.5 1.7-2.6 3.7-3.1 5.8-.6 2.6-.8 5.3-.7 8.1s.4 5.5.8 8.2.7 5.3.9 7.7.1 4.5-.3 6.4c-.7 3.1-2 5.1-3.8 6-1.9 1-4.2 1.1-7 .5-1.7-.5-3.6-1.2-5.7-2zM274.9 757c-.8-.5-1.5-1-2.3-1.4-.8-.5-1.4-.8-1.9-1-1.2-.4-2.5-.7-3.8-.8s-2.5-.3-3.5-.7-2-1.2-3-2.4-1.9-2.9-2.5-5c-.6-2-.9-4.4-.8-7.2.1-2.7.8-5.8 2-9.1.6-1.7 1.5-3.3 2.6-4.8s2.3-3 3.5-4.4c1.3-1.4 2.4-2.8 3.4-4.1s1.8-2.6 2.2-3.8.7-2.2.8-3.1.4-1.9.8-3.1c.5-1.2 1.3-2.1 2.5-2.6s3-.6 5.3-.2 5.4 1.2 9.2 2.6c4.2 1.5 7.5 3.1 9.6 4.6 2.2 1.5 2.9 3.3 2.2 5.4-.2.5-.5 1.3-1 2.3s-.9 1.9-1.1 2.7c-.5 1.4-.8 3.2-1 5.4-.1 2.2-.4 4.7-.7 7.4s-1 5.4-2 8.2c-1.6 4.4-3.6 8-5.8 10.6-2.3 2.6-4.6 4.3-6.9 5.2s-4.4 1-6.1.3c-.3-.2-.9-.6-1.7-1zm12.7-6.2c1.6-.9 2.9-2.6 3.8-5.2.7-1.8 1-3.6.9-5.3 0-1.7-.3-3.4-.7-5.1-.4-1.6-.8-3.3-1.1-4.9-.4-1.7-.5-3.3-.5-4.9 0-2.6-.3-4.6-.9-6.2-.6-1.5-1.5-2.7-2.6-3.6s-2.6-1.6-4.2-2.2c-3.1-1.1-5.7-1.1-7.7 0s-3.4 2.8-4.2 4.9c-.5 1.4-.9 3.4-1.1 5.7-.2 2.4-.1 4.9.1 7.6.3 2.7.9 5.3 1.7 7.9.9 2.6 2.1 4.9 3.8 6.9 1.6 2 3.7 3.5 6.2 4.4 2.7.8 4.8.9 6.5 0zm-43.6-6.5c-.7.2-1.3.1-1.9-.2s-1.3-.7-1.9-1.2c-.6-.4-1.2-.8-1.9-1.2-.9-.4-1.7-.7-2.5-1s-1.5-.6-2.1-.9c-1-.5-1.2-1.4-.6-2.6.4-.7.9-1.4 1.6-2.2s1.4-1.7 1.9-2.7c.2-.4.3-1 .3-1.6s-.5-1.2-1.3-1.6c-.7-.4-1.7-.5-2.8-.3s-2.4.5-3.8 1-2.9.9-4.5 1.3-3.2.6-4.9.5c-1.6-.1-3.2-.5-4.8-1.3-2.1-1.1-3.5-2.8-4.2-5s-.4-4.6.9-7.3c1.3-2.4 2.7-4.3 4.4-5.6 1.7-1.4 3.5-2.5 5.3-3.3s3.6-1.6 5.4-2.2c1.7-.6 3.3-1.3 4.7-2s2.4-1.8 3.1-3.1.9-2.4.6-3.4-.8-1.9-1.6-2.6-1.6-1.3-2.4-1.7c-1.8-.9-3.3-1.3-4.5-1.1s-2.4.5-3.5 1c-.4.1-.7.2-1 .3s-.5.1-.7 0c-.4-.2-.6-.7-.5-1.5s.5-1.9 1.2-3.2c1-1.9 2.3-3.6 3.8-5.3 1.6-1.7 3.4-2.8 5.5-3.4s4.2-.3 6.6.9c2.8 1.5 4.6 3.5 5.5 6 .8 2.5.5 5.2-1.1 8.2-1 1.8-2.1 3.5-3.4 4.9s-2.7 2.8-4.1 4.2c-1.5 1.4-2.9 2.8-4.3 4.4s-2.7 3.5-3.8 5.7c-1.3 2.5-1.9 4.6-1.6 6.3s1.5 3.1 3.7 4.3c1.9 1 4 1.1 6.5.3s5-2.3 7.5-4.5c2.5-2.3 4.7-5.2 6.6-8.9 1-1.9 1.5-3.7 1.6-5.6s0-3.7-.4-5.4-.8-3.3-1.3-4.8-.9-2.8-1.2-4c-.3-1.1-.2-2 .1-2.7.3-.6.8-1 1.4-1.1.6-.2 1.8.1 3.3.7 1.6.6 3.9 1.7 7 3.4 2.5 1.3 4.4 2.4 5.6 3.2s1.9 1.5 2.1 2 .1 1.1-.2 1.7c-.5 1-1.4 1.9-2.8 2.8-1.3.9-2.9 1.8-4.6 2.9-1.7 1-3.4 2.2-5 3.6s-2.9 3.1-4 5.2c-1.3 2.4-2.2 5.1-2.7 7.9s-.9 5.6-1 8.3c-.2 2.7-.3 5.1-.5 7.2s-.5 3.7-1.1 4.8c-.4.9-1 1.4-1.7 1.5zm-51.3-52.7c.4-.6 1.5-1.1 3-1.5 1.6-.4 3.4-.9 5.4-1.5s4-1.3 6-2.2c1.9-.9 3.5-2.2 4.7-3.9 1.3-1.9 1.5-3.8.6-5.8-1-2-2.6-3.8-4.9-5.3-3.9-2.9-7.7-3.6-11.3-2.3s-7 4.2-10.1 8.5c-2.3 3.2-3.5 6.2-3.8 9.1s.2 5.4 1.5 7.7c1.2 2.3 3 4.3 5.2 5.9 1.6 1.2 3.2 2 4.9 2.6s3.2.9 4.7 1.1 2.8.4 4 .5c1.1.1 2 .4 2.5.8.4.3.7.7.6 1.1 0 .4-.2.8-.6 1.3s-.8.9-1.1 1.4c-.3.4-.6.9-1 1.3-.9 1.2-1.5 2.3-2 3.3s-1 1.8-1.5 2.6-1.4 1.2-2.5 1.4-2.6-.2-4.6-1-4.5-2.4-7.7-4.7c-6.8-4.9-11.1-10-12.7-15.4s-.8-10.4 2.5-15c1.3-1.8 2.8-3.3 4.5-4.6s3.5-2.4 5.2-3.4c1.8-1 3.4-2 4.9-2.9s2.6-2 3.5-3.1c.9-1.2 1.4-2.6 1.6-4.2s.3-3.1.3-4.5.3-2.5.8-3.2c.3-.4.6-.6 1.1-.8s1.1 0 1.7.4c.7.5 1.6 1.3 2.7 2.3 1.2 1.1 2.5 2.3 4 3.6s3.1 2.6 4.7 3.7c1.2.9 2.6 1.8 4.1 2.7l4.5 2.7c1.5.9 2.8 1.6 4 2.3s2 1.2 2.5 1.5c.6.4 1.1.9 1.3 1.5.3.5.2 1.1-.3 1.7-.5.7-1.2 1.2-2.1 1.5-1 .3-2 .6-3.2.9s-2.3.7-3.4 1.3-2.1 1.4-2.9 2.5c-1 1.4-1.6 2.8-1.8 4.4-.2 1.5-.5 3.1-.7 4.7-.3 1.6-.9 3.1-2 4.6-.8 1.2-2 1.8-3.4 1.9s-3-.1-4.6-.6c-1.7-.5-3.2-1.2-4.7-2s-2.7-1.5-3.6-2.2c-.9-1-1.1-1.8-.5-2.7zM146 678c-.3-2 .2-3.8 1.6-5.3 1-1 2.3-1.9 4-2.7 1.7-.7 3.6-1.4 5.7-2s4.2-1.2 6.4-1.8c2.1-.6 4.1-1.4 6-2.2 1.8-.8 3.4-1.9 4.5-3.1.8-.8 1.4-1.8 1.7-2.9s.3-2.3-.2-3.6c-.4-1.3-1.4-2.6-2.8-4-2.3-2.2-4.8-3.4-7.6-3.7s-5.6.2-8.5 1.5-5.7 3.4-8.3 6.2c-2 2.1-3.4 4.1-4.2 6.1s-1.3 3.9-1.6 5.6c-.2 1.8-.4 3.2-.5 4.5-.1 1.2-.4 2.1-.9 2.6-.4.4-.9.6-1.4.6s-1.1-.3-1.8-.9c-.4-.3-.9-.9-1.7-1.7-.7-.8-1.6-1.6-2.5-2.5l-2.6-2.6c-.7-.6-1.6-1.5-2.8-2.6s-2.3-2-3.1-2.9c-.5-.5-.7-.9-.7-1.4 0-.4.2-.9.6-1.3.5-.5 1.3-.8 2.5-.9 1.2-.2 2.7-.3 4.5-.4s3.6-.3 5.6-.7c2-.3 3.9-.9 5.8-1.8s3.7-2.1 5.2-3.7c1.8-1.9 3.2-4 4.2-6.1s1.7-4.3 2.1-6.4.7-4.1 1-6c.2-1.9.5-3.5.7-4.9.3-1.4.7-2.4 1.3-3 .7-.8 1.7-1.1 3.1-.9 1.3.2 3 1.1 4.9 3 2.1 2 3.4 3.6 3.7 4.9.4 1.3 0 2.5-1.1 3.6-.9.9-1.9 1.7-3.1 2.3s-2.2 1.4-3.1 2.3c-.6.6-.9 1.2-1 1.9s.3 1.4 1.1 2.1c1 1 2.2 1.3 3.6.9 1.3-.4 2.7-1 4-2 1.8-1.2 3.5-2 5-2.5s3-.5 4.5-.1 3 1.4 4.6 2.9c1.4 1.3 2.5 2.9 3.4 4.7.8 1.8 1.2 3.7 1.2 5.5-.1 1.9-.8 3.6-2.2 5.1-1.1 1.2-2.4 2.1-3.9 2.8s-3 1.3-4.7 1.9-3.3 1.3-4.9 2.2c-1.6.8-3.1 2-4.5 3.5-2.7 2.8-4.6 5.4-5.9 7.6-1.2 2.2-2 4.1-2.4 5.8-.4 1.6-.7 3-.8 4s-.4 1.8-.8 2.3c-.8.8-1.9 1-3.3.5s-3.2-1.8-5.3-3.8c-2.5-2.3-3.9-4.5-4.3-6.5zm5.5-58.3c-1.1 5.7-5.2 11.5-12.3 17.3-5.2 4.2-9.7 7.1-13.4 8.5-3.8 1.4-7 1.7-9.8.9-2.7-.8-5.2-2.6-7.3-5.2-.7-.9-1.4-1.9-2-3.3-.6-1.3-1.3-2.7-2-4.1s-1.4-2.6-2.2-3.5c-.9-1.2-1.8-1.9-2.7-2.2-.8-.3-1.6-.6-2.2-.7s-1.1-.4-1.4-.7c-.5-.6-.5-1.2 0-2.1.4-.8 1.1-1.7 1.9-2.5.8-.9 1.6-1.6 2.4-2.3 2-1.6 3.9-2.5 5.7-2.6s3.6 1 5.3 3.1c1.1 1.4 1.9 2.9 2.5 4.7.5 1.8 1 3.7 1.3 5.6s.8 3.8 1.3 5.6c.6 1.8 1.4 3.4 2.5 4.8.9 1.1 2 1.8 3.3 2.1 1.4.4 2.7 0 4-1.1s2.1-2.5 2.4-4.2.1-3.5-.4-5.4-1.2-3.8-2.2-5.6-2-3.5-3.2-4.9c-1.3-1.5-2.5-2.6-3.6-3.3-1.2-.7-2.2-1.2-3-1.5s-1.4-.7-1.8-1.1c-.2-.3-.3-.6-.3-.9.1-.3.4-.7.9-1.1 2.6-2.2 4.9-3.6 6.9-4.3 1.9-.7 3.6-.2 5 1.5.8 1 1.3 2.1 1.4 3.3.2 1.2.2 2.5 0 3.8l-.3 4.2c-.1 1.4.1 2.8.4 4.1.3 1.4 1 2.7 2.1 4 1 1.3 2.2 1.9 3.6 1.9 1.5 0 2.9-.5 4.2-1.7 1.5-1.3 2.7-3 3.4-5.1.7-2.2.8-4.5.4-7.1-.5-2.5-1.7-5-3.6-7.3-1.8-2.2-3.5-3.7-5.2-4.6s-3.3-1.5-4.8-1.7-2.7-.4-3.8-.5-1.9-.4-2.3-1c-.4-.5-.4-1.1-.1-1.9s1.1-1.7 2.4-2.7c2.2-1.8 4.6-2.8 7.2-3s5.1.3 7.5 1.5 4.6 2.9 6.4 5.1c4.9 5.8 6.6 11.5 5.5 17.2z" fill="#d8b33d"/><path d="M45.2 532.5c-.2-1.4-.7-3.2-1.3-5.3-.5-1.8-1.2-3.5-1.9-5-.7-1.6-1.3-3-1.6-4.3-.2-.6-.1-1 .1-1.4.3-.3.6-.6 1.1-.7.5-.2 1.2.1 2.1.6.9.6 2 1.3 3.3 2.2s2.8 1.7 4.5 2.5 3.6 1.3 5.8 1.5c2.1.2 4.5-.1 7.2-.9 2-.6 3.8-1.4 5.4-2.5 1.6-1 2.7-2.3 3.4-3.8s.8-3.1.2-4.9-1.4-3-2.5-3.7-2.4-1-3.8-1-2.7.2-4 .6c-2.6.8-4.7 1.7-6.1 2.6-1.5 1-2.6 1.8-3.6 2.6-.9.8-1.8 1.3-2.8 1.6-.9.3-1.8 0-2.7-1-.9-.9-1.6-2.5-2.3-4.8-.7-2.2-.9-3.9-.7-5s.8-1.8 1.8-2.1c.8-.2 1.7-.4 2.7-.5s2.2-.3 3.5-.5 3-.6 5-1.3c3.5-1 6-2.5 7.5-4.3s1.8-4.5.7-7.9c-.5-1.6-1.4-2.9-2.8-3.9-1.3-.9-3-1.5-4.9-1.7s-3.9 0-6 .6c-2 .6-3.6 1.6-4.9 2.9-1.3 1.4-2.3 2.9-3 4.7-.8 1.8-1.4 3.6-1.9 5.4-.5 1.9-.9 3.6-1.3 5.2s-.8 3-1.2 4.1-1 1.8-1.7 2c-.5.2-1 .1-1.4-.1s-.8-.7-1-1.5c-.2-.6-.3-1.5-.5-2.7-.1-1.2-.4-2.5-.8-3.7-.3-1.1-.8-2.3-1.5-3.6s-1.2-2.7-1.6-4c-.7-2.4-.4-4.6 1-6.6s3.6-3.4 6.6-4.3c2-.6 4-1 6.1-1.1s4.2-.1 6.5 0 4.7.2 7.2.3c2.6.1 5.3.1 8.3 0s6.2-.5 9.8-1.2c1.8-.3 3.3-.4 4.4-.2 1.2.2 1.9.8 2.2 1.7.6 2.1.6 4-.1 5.8s-1.9 3.4-3.4 4.9c-1.6 1.5-3.3 2.8-5.2 4.1s-3.7 2.4-5.4 3.5-3 2-4.1 2.8c-1 .8-1.4 1.6-1.2 2.3.2.6 1 1.1 2.3 1.5 1.4.4 3.1.7 5.2.9s4.3.5 6.6.8c2.4.3 4.6.7 6.8 1.1 2.2.5 4 1.2 5.6 2.1 1.5.9 2.5 2.1 3 3.7.4 1.3-.3 2.2-2.1 2.8-1.2.4-2.7.8-4.6 1.2s-4 1-6.4 1.7c-4.8 1.4-9 3.2-12.6 5.4-3.6 2.1-6.7 4.2-9.3 6.3s-4.7 3.9-6.5 5.4c-1.7 1.5-3 2.4-3.8 2.7-1.4.4-2.3-.1-2.7-1.6-.3-.5-.5-1.6-.7-3zm-18.5-73.2c-.2-2.6-.5-6-1-9.9-.5-3.7-1-6.9-1.6-9.7s-1-4.7-1.1-5.6c-.1-.8.1-1.4.5-1.8s1-.7 1.7-.8c.9-.1 2.2 0 3.9.4s3.8.8 6.3 1.1 5.5.2 9-.2c2.6-.3 5.3-1 8.1-1.9s5.5-1.9 8.2-2.9c2.6-1 5-2 7.1-2.8s3.7-1.3 4.8-1.4c.9-.1 1.5 0 1.9.4s.6.8.7 1.3c.1.6.1 1.4 0 2.5s0 2 .1 2.8c.1 1.1.4 2.3.8 3.6s.6 2.2.7 2.7 0 1-.3 1.5c-.3.4-.7.7-1.2.7-.8.1-1.8-.2-3.1-1-1.2-.8-2.7-1.6-4.3-2.6s-3.4-1.8-5.4-2.4c-2-.7-4.1-.8-6.3-.5-1.3.2-2.4.7-3.2 1.5s-1.1 2-.9 3.7.6 3.2 1.2 4.6 1.2 2.7 1.8 4 1 2.6 1.2 3.9c.2 1.6-.2 2.8-1.1 3.6-1 .8-2.1 1.3-3.5 1.5s-2.7 0-3.7-.5c-1.1-.5-1.7-1.3-1.8-2.4-.1-.8 0-1.7.4-2.6.3-.9.7-2 1-3.2s.4-2.6.2-4.2c-.4-2.7-1.3-4.6-2.9-5.7s-3.5-1.5-5.7-1.2c-2.3.3-4.1 1.4-5.3 3.3-1.3 1.9-1.7 4.4-1.3 7.4.3 2.5 1.3 4.7 2.8 6.6 1.6 1.9 3.5 3.4 5.9 4.6s4.9 2 7.7 2.5 5.5.5 8.2.2c3.8-.5 6.6-1.8 8.3-4 1.7-2.1 2.4-5 2.2-8.6-.1-1.7.1-2.9.6-3.6s1.4-1.1 2.5-1.2c2.6-.3 4.5.4 5.8 2.3 1.3 1.8 2.3 4.9 2.8 9.2.4 2.7.4 4.8.2 6.3s-.7 2.5-1.3 3.1-1.4 1-2.2 1.1-1.9 0-3.4-.3-3.2-.6-5.2-.9c-1.9-.4-4-.6-6.2-.8s-4.4-.1-6.7.2c-3.7.5-6.8 1-9.4 1.4-2.6.5-4.9.9-6.7 1.3-1.9.4-3.5.7-4.8 1s-2.5.5-3.5.6c-.6.1-1.2-.1-1.7-.4s-.8-.9-.9-1.7c-.5-1.5-.7-3.4-.9-6.1zm-5-42.4c-.3-.6-.5-1.5-.4-2.9.1-3.6.4-6.3 1.2-8.2.7-1.9 1.8-2.8 3.2-2.8 1.1 0 2.3.3 3.5.9s2.4 1.2 3.7 1.9 2.6 1.3 3.9 1.9c1.4.6 2.7.9 4.1.9 1.3 0 2.5-.3 3.7-1 1.1-.7 1.7-1.9 1.8-3.8 0-2.1-.6-4-1.8-5.6s-2.8-2.9-4.6-3.8c-1.9-.9-3.8-1.4-5.6-1.5-1.3 0-2.6.1-3.9.5-1.3.3-2.6.7-3.7 1.1-1.2.4-2.1.5-2.7.5-.7 0-1.2-.2-1.5-.5-.4-.3-.5-1-.5-1.9 0-1 .1-2.1.2-3.4s.2-2.5.3-3.6.2-2 .2-2.5c0-.8 0-2-.1-3.4s-.1-2.6-.1-3.6c0-.7.2-1.2.5-1.4s.7-.4 1-.4c1.7 0 3.3.5 4.7 1.6 1.4 1 2.8 2.3 4 3.9s2.4 3.2 3.5 5c1.2 1.8 2.3 3.4 3.5 5s2.4 2.8 3.7 3.9c1.3 1 2.7 1.5 4.2 1.6 1.9 0 3.8-.6 5.7-1.9s3.4-3.1 4.6-5.3 1.8-4.6 1.8-7.1v-3.4c0-1.5.9-2.3 2.7-2.3 2 0 4.1.3 6.1.9s3.7 1.5 5 2.9c1.4 1.4 2 3.3 2 5.8-.1 3.7-1.2 6.4-3.6 7.9-2.3 1.5-5.6 2.4-9.9 2.7-3 .2-5.4.5-7.3 1.1s-3.4 1.5-4.3 2.9c-1 1.3-1.5 3.2-1.5 5.6 0 2 .4 3.8 1.4 5.2.9 1.4 2.5 2.1 4.5 2.2 1.5 0 3-.4 4.4-1.3s2.8-2 4-3.4c1.3-1.3 2.5-2.6 3.7-3.9s2.3-2.4 3.4-3.3 2.1-1.3 3.1-1.3c1.2 0 1.7.6 1.7 1.8 0 .3 0 1-.1 2s-.2 2.1-.3 3.4-.2 2.4-.2 3.5v5.1c.1 1.7.1 3.1.1 4.1 0 .6-.2 1.1-.6 1.5s-1 .6-1.7.5c-.8 0-2.1-.4-4.1-1.2-1.9-.8-4.2-1.7-6.8-2.7s-5.3-1.9-8.2-2.7c-2.8-.8-5.6-1.2-8.1-1.2-3.5-.1-6.5.1-8.9.6s-4.5 1-6.1 1.6-3 1.2-4 1.7-1.8.8-2.4.7c-1.2-.2-1.8-.5-2.1-1.1zm3.2-63.2c.6-2.6 1.2-5.9 1.7-9.8.5-3.7.9-7 1.1-9.8s.4-4.7.5-5.7c.1-.8.4-1.3 1-1.6.5-.3 1.2-.4 1.9-.3.9.1 2.1.6 3.7 1.5 1.5.9 3.4 1.8 5.8 2.8 2.3 1 5.2 1.7 8.7 2.2 2.6.4 5.3.5 8.3.4s5.9-.3 8.7-.6 5.3-.5 7.6-.7c2.2-.2 3.9-.2 5-.1.9.1 1.4.4 1.7.9s.4 1 .3 1.5c-.1.6-.3 1.4-.6 2.4s-.6 1.9-.7 2.7c-.2 1.1-.2 2.3-.2 3.7s0 2.3-.1 2.8-.3 1-.7 1.3-.8.5-1.4.4c-.8-.1-1.7-.7-2.7-1.8s-2.1-2.3-3.4-3.7-2.8-2.7-4.5-3.8c-1.7-1.2-3.7-1.9-5.9-2.2-1.3-.2-2.5 0-3.5.5s-1.7 1.6-1.9 3.3-.3 3.3-.1 4.8.4 2.9.7 4.3c.2 1.4.3 2.7.1 4.1-.2 1.6-.9 2.6-2.1 3.2-1.2.5-2.4.7-3.8.5s-2.6-.7-3.4-1.5c-.9-.8-1.2-1.7-1.1-2.8.1-.8.5-1.6 1.1-2.4s1.2-1.7 1.8-2.8 1.1-2.4 1.3-4c.4-2.7 0-4.8-1.2-6.3s-2.9-2.4-5.1-2.7c-2.3-.3-4.3.2-6 1.7s-2.8 3.7-3.3 6.8c-.4 2.5-.1 4.9.9 7.1 1 2.3 2.4 4.3 4.4 6.1 1.9 1.8 4.2 3.3 6.7 4.5s5.1 2 7.9 2.4c3.8.6 6.8 0 9-1.6s3.7-4.1 4.5-7.6c.4-1.7.9-2.8 1.6-3.3s1.6-.7 2.7-.5c2.6.4 4.2 1.6 5 3.8.8 2.1.8 5.3.2 9.6-.4 2.7-.9 4.8-1.6 6.1-.6 1.4-1.4 2.2-2.1 2.6-.8.4-1.6.6-2.4.4-.8-.1-1.8-.5-3.2-1.2s-2.9-1.4-4.7-2.3-3.7-1.7-5.8-2.5-4.2-1.3-6.5-1.7c-3.6-.5-6.8-.9-9.5-1.2s-4.9-.5-6.8-.6-3.5-.3-4.9-.3c-1.3-.1-2.5-.2-3.6-.4-.6-.1-1.1-.4-1.5-.8-.4-.5-.5-1.1-.4-1.9-.1-1.4.2-3.3.8-5.9zm16.2-59.8c-.2-1.1-.5-2.2-.9-3.3s-.7-2.2-.9-3.2c-.2-1.1-.1-2 .2-3 .7-2 1.8-3.1 3.6-3.3 1.7-.2 3.6 0 5.6.6.7.2 1.3.2 1.7.1s.7-.5 1-1.3.2-1.7-.2-2.8-.9-2.2-1.5-3.5-1.2-2.6-1.8-4.1-1-3-1.2-4.6 0-3.2.5-4.8c.7-2.2 2.1-3.9 4.2-5s4.5-1.1 7.3-.3c2.6.8 4.7 2 6.4 3.5s3.2 3.1 4.3 4.7c1.2 1.7 2.2 3.3 3.1 4.9s1.8 3 2.7 4.2 2 2 3.2 2.4 2.3.4 3.2-.1 1.6-1.1 2.1-2c.6-.9 1-1.8 1.3-2.7.6-1.7.7-3.2.3-4.3-.3-1.2-.8-2.1-1.2-2.8-.5-.7-.6-1.3-.5-1.8.2-.5.7-.8 1.5-.9.9-.1 2.1.1 3.8.6 3.8 1.2 6.6 3.1 8.4 5.6 1.9 2.5 2.2 5.5 1 9.1-1 3.1-2.6 5.2-4.8 6.4s-4.7 1.3-7.6.4c-2-.7-3.9-1.6-5.5-2.7-1.7-1.1-3.3-2.3-4.9-3.6s-3.4-2.5-5.2-3.7-4-2.2-6.4-3c-2.9-1-5.2-1.3-6.9-.7-1.7.5-3 2-3.8 4.4-.7 2-.4 4.1.8 6.5 1.2 2.3 3.2 4.6 5.9 6.7s6.1 3.8 10.1 5.1c2 .7 4 .9 5.8.7s3.5-.6 5.1-1.3 3.1-1.4 4.4-2.1c1.4-.7 2.6-1.3 3.7-1.8s2-.5 2.9-.3c.7.2 1.1.6 1.4 1.2s.2 1.7-.2 3.4c-.3 1.7-1.1 4.2-2.2 7.5-.7 2.2-1.4 3.8-1.9 4.9-.5 1-1 1.7-1.5 1.9s-1.1.2-1.8 0c-1.2-.4-2.4-1.1-3.5-2.1s-2.3-2.1-3.6-3.4-2.7-2.5-4.4-3.6c-1.6-1.2-3.6-2.1-5.8-2.8-1.4-.5-3.1-.8-5.1-1s-4.1-.3-6.3-.3c-2.2.1-4.3.3-6.3.7s-3.7 1-5.1 1.8-2.3 1.7-2.7 2.9c-.5 1.4-.2 2.9.9 4.4s2.6 2.9 4.6 4.2 4.3 2.4 7 3.3 5.4 1.4 8.1 1.4 5.3-.1 7.8-.4 4.9-.6 7.1-.7 4.3.1 6.1.7c1 .3 1.4 1.1.9 2.4-.1.4-.5 1.2-1.1 2.6-.6 1.3-1.1 2.7-1.5 4-.4 1.2-.8 2.5-1.1 3.8-.4 1.3-.7 2.4-.9 3.1-.4 1.2-1.3 1.6-2.7 1.1-.8-.3-2.1-1.1-3.7-2.4-1.7-1.3-3.6-2.8-5.7-4.5-2.2-1.7-4.4-3.4-6.8-4.9-2.4-1.6-4.8-2.7-7.2-3.5-2.1-.7-4.2-1-6.2-.9-2.1.1-4 .3-5.9.6-1.9.4-3.7.6-5.4.8s-3.1.1-4.4-.3c-.9-.3-1.5-.9-1.8-1.6-.3-.8-.2-1.7.1-2.7.4-1.3 1.1-2.4 1.9-3.4.9-1 1.8-1.9 2.9-2.7 1-.8 2-1.7 2.8-2.5.8-.9 1.4-1.7 1.7-2.6.8-1 .8-2.1.7-3.3zM62.9 229c1.4-2.2 3.1-5.1 5-8.6 1.8-3.3 3.2-6.2 4.4-8.8s2-4.3 2.4-5.2c.4-.7.9-1.1 1.5-1.2s1.2 0 1.9.4c.8.4 1.8 1.3 2.9 2.7 1.1 1.3 2.6 2.9 4.5 4.6s4.3 3.4 7.4 5.1c2.3 1.2 4.8 2.3 7.6 3.2s5.6 1.7 8.3 2.4 5.2 1.3 7.4 1.9 3.7 1.1 4.7 1.6c.8.4 1.2.9 1.3 1.4s0 1-.2 1.5c-.3.5-.8 1.2-1.4 2-.7.8-1.2 1.6-1.6 2.3-.5 1-1 2.1-1.5 3.4-.4 1.3-.8 2.2-1 2.6-.3.5-.6.8-1.1 1s-1 .1-1.4-.1c-.7-.4-1.4-1.3-1.9-2.6-.6-1.3-1.2-2.9-2-4.6-.7-1.7-1.7-3.5-2.9-5.1-1.2-1.7-2.8-3.1-4.8-4.1-1.2-.6-2.3-.9-3.5-.7-1.1.2-2.1 1-2.9 2.4-.8 1.5-1.4 3-1.7 4.5s-.6 2.9-.9 4.3c-.2 1.4-.7 2.7-1.3 3.9-.8 1.4-1.8 2.2-3 2.2-1.3.1-2.5-.2-3.7-.8-1.3-.7-2.2-1.5-2.7-2.6-.6-1.1-.6-2.1-.1-3 .4-.7 1-1.4 1.8-1.9.8-.6 1.7-1.2 2.7-2s1.8-1.9 2.6-3.3c1.3-2.4 1.6-4.5 1-6.4-.6-1.8-1.9-3.2-3.9-4.3s-4.1-1.3-6.3-.5c-2.1.8-3.9 2.5-5.4 5.2-1.2 2.2-1.7 4.6-1.6 7 .1 2.5.8 4.8 2 7.2 1.2 2.3 2.8 4.5 4.7 6.5 2 2 4.1 3.6 6.6 4.9 3.4 1.8 6.4 2.4 9 1.6 2.6-.7 4.9-2.6 6.8-5.6.9-1.4 1.8-2.3 2.6-2.5s1.7-.1 2.8.5c2.3 1.2 3.4 3 3.4 5.3s-1 5.3-3.1 9.1c-1.3 2.4-2.5 4.2-3.6 5.2-1.1 1.1-2 1.6-2.9 1.8-.9.1-1.7 0-2.4-.4s-1.5-1.1-2.6-2.2-2.3-2.4-3.6-3.8c-1.4-1.4-2.9-2.9-4.6-4.3s-3.5-2.7-5.5-3.8c-3.2-1.7-6.1-3.2-8.5-4.4s-4.5-2.1-6.2-2.9-3.2-1.4-4.5-2c-1.2-.5-2.3-1.1-3.2-1.6-.5-.3-.9-.7-1.1-1.3s-.1-1.2.3-2c.6-1.2 1.6-2.9 3-5.1zm52.3-25.6c2.8.7 5.6 1.3 8.3 1.5 2.7.3 5.2.6 7.3.9s3.7.8 4.7 1.5c.9.6 1 1.4.4 2.4-.3.4-.9 1.3-1.9 2.6s-1.9 2.6-2.8 3.9c-.9 1.4-1.9 2.8-2.8 4.4-1 1.5-1.7 2.7-2.3 3.5-.8 1.1-1.8 1.3-3 .5-.6-.4-1.4-1.3-2.2-2.6s-1.7-2.8-2.8-4.6c-1-1.8-2.1-3.6-3.3-5.5s-2.5-3.7-3.9-5.4-3-3.1-4.7-4.3c-2.3-1.6-4.7-2.8-7-3.6s-4.5-1.4-6.5-1.8-3.7-.7-5.2-.9c-1.4-.2-2.4-.4-2.9-.8-1.1-.7-1.2-1.8-.3-3 .3-.5.8-1.1 1.4-1.9s1.3-1.7 1.9-2.7c.7-1 1.3-2 1.9-2.9.6-1 1-1.7 1.3-2.1.3-.5.7-.8 1.2-.8.4 0 .9.1 1.3.4.5.4 1.2 1.2 1.9 2.5s1.6 2.9 2.7 4.7 2.4 3.6 4 5.5 3.5 3.6 5.8 5.2c2.2 1.5 4.7 2.7 7.5 3.4zm3-54.6c1.8-1.4 3.6-2.9 5.4-4.3s3.3-2.8 4.6-4.2c1.1-1.2 1.7-2.3 1.9-3.2.2-1 .3-1.8.3-2.6 0-.7.2-1.3.5-1.7.4-.5 1.1-.6 2-.3s1.8.8 2.7 1.4c.9.7 1.7 1.3 2.4 1.9 2 1.9 3.3 3.8 3.9 5.7.6 2-.1 3.9-1.9 5.9-1.2 1.3-2.8 2.5-4.7 3.4s-3.9 1.8-6 2.5c-2.1.8-4.1 1.6-5.9 2.4s-3.3 1.8-4.4 3c-1.2 1.3-1.7 2.5-1.7 3.6.1 1.1.6 2.1 1.5 3 1.1 1 2.4 1.4 3.9 1.4 1.6 0 3.2-.3 4.9-1 1.7-.6 3.4-1.4 5-2.4 1.6-.9 3.1-1.9 4.4-2.9s2.2-1.8 2.8-2.5c1.5-1.7 2.6-3.1 3.2-4.4s1-2.4 1.3-3.3.6-1.6 1-2c.3-.3.7-.5 1.1-.5s1 .3 1.7.9c2.3 2.1 3.8 4.1 4.7 6 .8 1.9.4 3.9-1.3 5.7-.8.9-1.8 1.5-3 1.9s-2.6.7-4.2.8c-1.5.2-3 .3-4.5.5s-2.8.4-4.1.8c-1.2.3-2.2.9-2.9 1.7s-1 1.6-.8 2.5.7 1.7 1.5 2.5c1.6 1.4 3.4 2.3 5.6 2.5 2.1.2 4.4.1 6.7-.4 2.4-.5 4.6-1 6.9-1.5 2.2-.5 4.3-.9 6.1-1s3.3.3 4.3 1.3c.7.6 1 1.4 1.1 2.3 0 .9-.4 1.8-1.4 2.9-1.2 1.3-2.6 2.7-4.3 4.2s-3.2 3-4.6 4.7c-1.3 1.4-2.3 2.6-3.1 3.7s-1.6 2.1-2.3 2.9-1.4.9-2.1.3c-.2-.1-.3-.4-.4-.7s-.2-.7-.3-1.1c0-1.9-.4-4-1.1-6.2s-1.9-4-3.6-5.6c-2-1.8-4.2-3.3-6.7-4.6-2.5-1.2-5-2.4-7.5-3.3-2.6-1-4.9-2-7.2-3-2.2-1-4-2.1-5.4-3.4-2.3-2.1-3.4-4.2-3.4-6.3.1-2.1 1.1-4.2 3-6.3 1.1-.9 2.6-2.2 4.4-3.6zm31.3-32.1c.8-.4 1.6-.9 2.3-1.3.8-.4 1.4-.9 1.8-1.2 1-.8 1.8-1.8 2.6-2.9.7-1.1 1.5-2 2.3-2.7s2-1.2 3.6-1.5 3.4-.2 5.5.2 4.3 1.4 6.6 2.8 4.6 3.5 6.9 6.2c1.2 1.4 2.2 2.9 2.9 4.6.8 1.7 1.5 3.4 2.1 5.2s1.3 3.4 1.9 5 1.4 2.8 2.3 3.8c.8 1 1.6 1.7 2.3 2.2s1.5 1.3 2.3 2.2c.9 1 1.2 2.2 1 3.5s-1 2.9-2.4 4.8-3.7 4.1-6.8 6.8c-3.4 2.9-6.3 5-8.7 6.2s-4.3.9-5.8-.7c-.4-.4-.9-1.1-1.5-2s-1.2-1.7-1.8-2.3c-1-1.1-2.4-2.3-4.2-3.5-1.9-1.2-3.9-2.6-6.1-4.2s-4.3-3.5-6.2-5.8c-3.1-3.6-5.2-7-6.4-10.2s-1.6-6.1-1.2-8.6 1.3-4.3 2.7-5.5c.6-.3 1.2-.7 2-1.1zm-.7 14c0 1.9.9 3.8 2.6 5.8 1.3 1.5 2.7 2.6 4.2 3.4s3.1 1.5 4.7 1.9c1.6.5 3.2.9 4.9 1.4 1.6.5 3.1 1.1 4.6 1.9 2.2 1.3 4.2 2 5.8 2.2s3.1 0 4.4-.5c1.3-.6 2.6-1.5 4-2.6 2.5-2.2 3.7-4.4 3.7-6.7s-.7-4.3-2.2-6c-1-1.2-2.5-2.4-4.5-3.7s-4.2-2.5-6.7-3.6-5.1-1.8-7.7-2.3c-2.7-.5-5.3-.5-7.8-.1-2.5.5-4.8 1.5-6.8 3.3-2.1 1.9-3.2 3.8-3.2 5.6zm26.8-34.8c.2-.7.5-1.2 1.1-1.6s1.2-.7 1.9-1.1c.7-.3 1.3-.7 2-1.1.8-.6 1.5-1.1 2.1-1.7.7-.6 1.3-1 1.8-1.4 1-.6 1.8-.4 2.5.7.4.6.8 1.5 1.1 2.5s.8 2 1.4 2.9c.3.4.7.8 1.3 1 .6.3 1.3.2 2-.3s1.2-1.2 1.6-2.3.7-2.4 1-3.8c.3-1.5.7-3 1.1-4.6s1.1-3.1 1.9-4.5c.9-1.4 2-2.6 3.5-3.6 2-1.3 4.1-1.7 6.4-1.3 2.3.5 4.2 1.9 5.9 4.4 1.5 2.3 2.4 4.5 2.8 6.6s.5 4.2.3 6.2-.4 3.9-.7 5.7-.5 3.5-.5 5.1c0 1.5.4 2.9 1.2 4.2.8 1.2 1.7 1.9 2.7 2.1s2 .2 3-.2c1-.3 1.9-.8 2.6-1.2 1.7-1.1 2.7-2.2 3.2-3.4.4-1.2.7-2.4.8-3.5.1-.4.1-.7.2-1 0-.3.2-.5.3-.6.4-.3 1-.2 1.6.3.7.5 1.4 1.3 2.2 2.6 1.1 1.8 2 3.7 2.7 5.9s.8 4.3.3 6.4-1.8 3.8-4 5.3c-2.7 1.7-5.3 2.4-7.9 1.9s-4.8-2.1-6.6-4.9c-1.1-1.8-2-3.5-2.6-5.3s-1.1-3.7-1.6-5.6-1.1-3.9-1.8-5.9-1.7-4-3.1-6.1c-1.6-2.4-3.1-3.9-4.7-4.5s-3.4-.2-5.5 1.1c-1.8 1.1-2.9 3-3.5 5.6s-.5 5.5.3 8.8 2.3 6.6 4.5 10.1c1.1 1.8 2.5 3.1 4.1 4.2 1.6 1 3.2 1.8 4.9 2.3s3.3.9 4.9 1.2 2.9.6 4 .9 1.9.8 2.3 1.4.5 1.1.3 1.8c-.2.6-.9 1.5-2.2 2.6s-3.4 2.6-6.4 4.5c-2.4 1.6-4.2 2.7-5.5 3.3s-2.2.9-2.8.8-1-.4-1.4-1c-.6-.9-1-2.2-1.1-3.8s-.2-3.4-.3-5.4-.3-4-.7-6.1-1.3-4.1-2.5-6c-1.5-2.3-3.4-4.4-5.6-6.2s-4.5-3.5-6.7-4.9c-2.3-1.4-4.3-2.8-6.1-3.9-1.8-1.2-3-2.3-3.7-3.3-.3-.9-.5-1.6-.3-2.3zm71-19.2c.3.7.3 1.8-.1 3.4s-.9 3.4-1.4 5.4-.8 4.2-1 6.3c-.1 2.1.2 4.2 1.1 6 1 2.1 2.6 3.2 4.8 3.3s4.5-.4 7.1-1.7c4.4-2 6.9-4.9 7.5-8.8.6-3.8-.2-8.2-2.5-13-1.7-3.5-3.7-6.1-6.1-7.7s-4.9-2.4-7.5-2.5c-2.6 0-5.2.5-7.6 1.7-1.8.8-3.3 1.9-4.6 3-1.3 1.2-2.4 2.4-3.3 3.6s-1.7 2.3-2.4 3.2-1.3 1.5-1.9 1.8c-.5.2-.9.2-1.2 0s-.6-.6-.9-1.1c-.2-.6-.4-1.1-.7-1.6-.2-.5-.5-1-.7-1.5-.6-1.3-1.3-2.4-1.9-3.3s-1.1-1.7-1.5-2.6c-.4-.8-.4-1.8 0-2.8s1.4-2.2 3.1-3.5 4.3-2.8 7.8-4.5c7.6-3.6 14.2-4.8 19.6-3.6 5.5 1.2 9.4 4.4 11.9 9.5.9 2 1.5 4 1.8 6.2.3 2.1.4 4.2.4 6.2s.1 3.9.2 5.7c.1 1.7.4 3.3 1.1 4.6.6 1.3 1.6 2.5 2.9 3.4s2.5 1.8 3.8 2.5c1.2.7 2 1.5 2.4 2.3.2.4.2.9.2 1.4-.1.5-.5 1-1.2 1.3-.7.4-1.9.8-3.4 1.3s-3.2 1.1-5.1 1.7c-1.9.7-3.7 1.4-5.6 2.3-1.3.6-2.8 1.4-4.4 2.3s-3.1 1.8-4.5 2.6c-1.5.9-2.8 1.7-3.9 2.3-1.1.7-2 1.2-2.5 1.4-.7.3-1.3.5-1.9.5s-1-.4-1.4-1.1-.4-1.6-.3-2.6c.2-1 .4-2.1.7-3.2s.5-2.3.5-3.6c.1-1.2-.2-2.5-.8-3.7-.7-1.5-1.7-2.8-2.9-3.7s-2.5-1.9-3.7-2.9c-1.3-1-2.3-2.3-3-3.9-.6-1.3-.6-2.6 0-3.9s1.5-2.5 2.8-3.7 2.6-2.3 4-3.2 2.6-1.6 3.6-2.1c1.3-.5 2.2-.4 2.6.6zm34.6-34.1c1.9.7 3.2 2 3.8 4 .4 1.4.5 3 .3 4.8s-.6 3.8-1.1 6c-.5 2.1-1 4.3-1.5 6.4-.5 2.2-.8 4.3-1 6.3s0 3.8.5 5.5c.3 1.1.9 2.1 1.7 2.9s1.9 1.4 3.2 1.6 3 .1 4.8-.5c3-.9 5.3-2.5 7-4.8 1.6-2.3 2.6-5 2.8-8.2s-.2-6.6-1.3-10.2c-.9-2.7-2-4.9-3.3-6.6s-2.7-3.1-4.1-4.1c-1.4-1.1-2.6-1.9-3.7-2.6-1-.7-1.6-1.4-1.9-2.1-.2-.6-.1-1.1.2-1.6s.8-.8 1.7-1.1c.5-.1 1.2-.4 2.3-.6 1-.3 2.2-.6 3.4-.9 1.2-.4 2.4-.7 3.5-1.1l3.6-1.2c1.5-.5 2.9-1 4-1.3.6-.2 1.1-.2 1.5 0s.7.6.8 1.1c.2.6.1 1.5-.4 2.7s-1.1 2.5-1.9 4.1-1.5 3.3-2.1 5.2c-.7 1.9-1.1 3.9-1.3 6s0 4.2.7 6.4c.8 2.5 1.9 4.7 3.3 6.6s2.9 3.5 4.6 5c1.7 1.4 3.2 2.7 4.8 3.8 1.5 1.1 2.8 2.1 3.9 3s1.8 1.8 2 2.6c.3 1 .1 2-.7 3.1s-2.4 2-5 2.8c-2.8.9-4.8 1.2-6.1.9s-2.1-1.2-2.6-2.7c-.4-1.2-.5-2.5-.5-3.8s-.1-2.6-.5-3.8c-.2-.8-.6-1.4-1.2-1.8-.5-.4-1.3-.5-2.4-.1-1.4.4-2.2 1.3-2.5 2.7-.3 1.3-.4 2.8-.2 4.4.2 2.1.1 4-.2 5.6s-1 2.9-2.1 4-2.7 2-4.8 2.6c-1.8.6-3.8.8-5.8.6-2-.1-3.8-.7-5.4-1.7s-2.7-2.4-3.3-4.4c-.5-1.5-.7-3.1-.5-4.7.1-1.6.3-3.3.6-5s.5-3.5.5-5.4c.1-1.8-.2-3.7-.8-5.7-1.2-3.7-2.4-6.7-3.8-8.8-1.3-2.1-2.6-3.8-3.8-4.9s-2.3-2-3.1-2.6c-.9-.6-1.4-1.2-1.6-1.8-.3-1.1.1-2.1 1.2-3.1s3.1-1.9 5.9-2.8c3.5-1.2 6-1.4 7.9-.7zm48.3 33.2c-4.5-3.8-7.5-10.2-9.1-19.2-1.2-6.6-1.4-11.9-.8-15.9s1.9-7 4-8.9c2.1-2 4.8-3.3 8.1-3.8 1.1-.2 2.4-.2 3.8-.2l4.5.3c1.6.1 2.9 0 4.1-.2 1.5-.3 2.5-.7 3.3-1.2.7-.6 1.3-1.1 1.7-1.6s.8-.8 1.3-.9c.7-.1 1.3.2 1.8 1s.9 1.7 1.3 2.9c.4 1.1.6 2.2.8 3.2.4 2.5.2 4.6-.6 6.3-.8 1.6-2.6 2.7-5.3 3.1-1.7.3-3.5.3-5.3-.2-1.8-.4-3.7-.9-5.5-1.6s-3.7-1.2-5.6-1.6-3.7-.5-5.4-.1c-1.4.2-2.5.9-3.5 1.9s-1.3 2.4-1 4c.3 1.7 1.1 3 2.5 4.1 1.4 1 3 1.8 4.9 2.3s3.9.8 6 .8c2.1.1 4-.1 5.8-.4 2-.3 3.5-.8 4.7-1.5s2.1-1.3 2.8-1.9 1.3-.9 1.8-1c.4-.1.7 0 .9.2s.4.7.5 1.4c.6 3.4.7 6.1.4 8.1s-1.6 3.2-3.7 3.6c-1.2.2-2.4.1-3.5-.3s-2.2-1.1-3.4-1.8c-1.1-.8-2.3-1.5-3.5-2.3-1.2-.7-2.5-1.3-3.8-1.7-1.4-.4-2.9-.4-4.5-.1-1.6.2-2.7 1-3.5 2.2-.7 1.3-.9 2.8-.6 4.5.3 2 1.3 3.8 2.8 5.5 1.6 1.7 3.5 2.9 6 3.8 2.4.8 5.1 1 8.1.5 2.8-.5 5-1.3 6.6-2.3 1.6-1.1 2.9-2.2 3.8-3.3.9-1.2 1.7-2.2 2.3-3.1s1.3-1.4 2-1.5c.6-.1 1.1.2 1.7.8.5.7.9 1.8 1.2 3.4.5 2.8.2 5.4-.9 7.7s-2.8 4.3-5 5.9-4.7 2.6-7.5 3.1c-7.3 1.1-13.1-.2-17.5-4z" fill="#cd4e49"/></svg>